<svg width="18" height="25" viewBox="0 0 18 25" fill="none" xmlns="http://www.w3.org/2000/svg">
<path d="M12.579 7.4473C12.4747 7.4473 12.3932 7.36584 12.3932 7.26708C12.3932 7.16832 12.4747 7.08686 12.579 7.08686C12.6834 7.08686 12.7648 7.16832 12.7648 7.26708C12.7704 7.36584 12.6834 7.4473 12.579 7.4473ZM1.49072 15.8697C1.49072 11.8446 4.89427 8.57437 9.05329 8.57437C13.2123 8.57437 16.6158 11.8501 16.6158 15.8697C16.6158 19.8831 13.2123 23.1706 9.05329 23.1706C4.89482 23.165 1.49072 19.8831 1.49072 15.8697ZM12.0211 4.72893C12.2013 4.77524 12.3112 4.94988 12.2649 5.12396C12.2186 5.29805 12.0328 5.40294 11.8526 5.35607C11.6723 5.3092 11.5624 5.13512 11.6087 4.96104C11.655 4.78696 11.8408 4.68206 12.0211 4.72893ZM12.3291 4.09007C12.4334 4.09007 12.5149 4.17153 12.5149 4.27029C12.5149 4.36905 12.4334 4.45051 12.3291 4.45051C12.2247 4.45051 12.1433 4.36905 12.1433 4.27029C12.1377 4.16595 12.2247 4.09007 12.3291 4.09007ZM12.1723 3.43949C12.2766 3.43949 12.3581 3.52095 12.3581 3.61971C12.3581 3.71847 12.2766 3.79993 12.1723 3.79993C12.0679 3.79993 11.9865 3.71847 11.9865 3.61971C11.9809 3.52095 12.0679 3.43949 12.1723 3.43949ZM14.4956 5.1474C14.5999 5.1474 14.6814 5.22886 14.6814 5.32762C14.6814 5.42638 14.5999 5.50784 14.4956 5.50784C14.3913 5.50784 14.3098 5.42638 14.3098 5.32762C14.3098 5.22886 14.3913 5.1474 14.4956 5.1474ZM14.3388 4.50296C14.4432 4.50296 14.5246 4.58442 14.5246 4.68318C14.5246 4.78193 14.4432 4.8634 14.3388 4.8634C14.2345 4.8634 14.153 4.78193 14.153 4.68318C14.153 4.58442 14.2345 4.50296 14.3388 4.50296ZM14.0598 3.93384C14.1642 3.93384 14.2456 4.0153 14.2456 4.11406C14.2456 4.21282 14.1586 4.29428 14.0598 4.29428C13.9555 4.29428 13.874 4.21282 13.874 4.11406C13.8685 4.0153 13.9555 3.93384 14.0598 3.93384ZM13.6124 3.42833C13.7167 3.42833 13.7982 3.50979 13.7982 3.60855C13.7982 3.70731 13.7167 3.78877 13.6124 3.78877C13.508 3.78877 13.4266 3.70731 13.4266 3.60855C13.4266 3.50979 13.508 3.42833 13.6124 3.42833ZM13.0661 3.04501C13.1705 3.04501 13.2519 3.12647 13.2519 3.22523C13.2519 3.32399 13.1705 3.40545 13.0661 3.40545C12.9618 3.40545 12.8803 3.32399 12.8803 3.22523C12.8803 3.12647 12.9618 3.04501 13.0661 3.04501ZM12.4736 2.81848C12.5779 2.81848 12.6594 2.89994 12.6594 2.9987C12.6594 3.09746 12.5779 3.17892 12.4736 3.17892C12.3692 3.17892 12.2878 3.09746 12.2878 2.9987C12.2878 2.89994 12.3748 2.81848 12.4736 2.81848ZM11.8754 2.87093C11.9798 2.87093 12.0612 2.95239 12.0612 3.05115C12.0612 3.14991 11.9798 3.23137 11.8754 3.23137C11.7711 3.23137 11.6896 3.14991 11.6896 3.05115C11.6896 2.95239 11.7711 2.87093 11.8754 2.87093ZM11.4341 2.37714C11.5384 2.37714 11.6199 2.4586 11.6199 2.55736C11.6199 2.65612 11.5329 2.73758 11.4341 2.73758C11.3298 2.73758 11.2483 2.65612 11.2483 2.55736C11.2483 2.4586 11.3298 2.37714 11.4341 2.37714ZM10.8588 2.01112C10.9632 2.01112 11.0446 2.09258 11.0446 2.19134C11.0446 2.29009 10.9632 2.37156 10.8588 2.37156C10.7545 2.37156 10.673 2.29009 10.673 2.19134C10.673 2.09258 10.7545 2.01112 10.8588 2.01112ZM10.2607 1.7963C10.365 1.7963 10.4465 1.87776 10.4465 1.97652C10.4465 2.07528 10.365 2.15674 10.2607 2.15674C10.1564 2.15674 10.0749 2.07528 10.0749 1.97652C10.0749 1.87776 10.1564 1.7963 10.2607 1.7963ZM9.65086 1.69196C9.7552 1.69196 9.83666 1.77343 9.83666 1.87218C9.83666 1.97094 9.7552 2.0524 9.65086 2.0524C9.54652 2.0524 9.46506 1.97094 9.46506 1.87218C9.45948 1.77343 9.54652 1.69196 9.65086 1.69196ZM3.84921 6.46027C3.77094 6.50174 3.67974 6.51161 3.59441 6.48784C3.50908 6.46407 3.43612 6.40847 3.39057 6.3325C3.36908 6.29506 3.35546 6.25362 3.35056 6.21073C3.34565 6.16783 3.34957 6.12439 3.36205 6.08307C3.37454 6.04174 3.39534 6.0034 3.42317 5.9704C3.45101 5.9374 3.48529 5.91043 3.52392 5.89116C3.60219 5.84968 3.69339 5.83982 3.77872 5.86359C3.86405 5.88736 3.93701 5.94296 3.98256 6.01893C4.0696 6.17571 4.01158 6.37323 3.84921 6.46027ZM6.25401 5.35663C6.07379 5.40294 5.88799 5.2986 5.84168 5.12452C5.79537 4.95044 5.90584 4.77022 6.08551 4.72949C6.26573 4.68318 6.45153 4.78751 6.49784 4.9616C6.54415 5.13568 6.43367 5.3159 6.25401 5.35663ZM9.05329 5.01405C9.00979 5.01486 8.96656 5.00708 8.92606 4.99117C8.88557 4.97525 8.84862 4.95151 8.81732 4.9213C8.78601 4.89108 8.76098 4.85499 8.74364 4.81509C8.7263 4.77519 8.717 4.73226 8.71628 4.68876C8.71628 4.50854 8.86749 4.36347 9.05329 4.36347C9.23909 4.36347 9.39029 4.50854 9.39029 4.68876C9.39029 4.86898 9.23909 5.01405 9.05329 5.01405ZM5.78309 4.45051C5.67876 4.45051 5.59729 4.36905 5.59729 4.27029C5.59729 4.17153 5.67876 4.09007 5.78309 4.09007C5.88743 4.09007 5.96889 4.17153 5.96889 4.27029C5.96889 4.36905 5.88185 4.45051 5.78309 4.45051ZM5.93988 3.79993C5.83554 3.79993 5.75408 3.71847 5.75408 3.61971C5.75408 3.52095 5.83554 3.43949 5.93988 3.43949C6.04422 3.43949 6.12568 3.52095 6.12568 3.61971C6.12568 3.71847 6.03864 3.79993 5.93988 3.79993ZM3.61096 5.51342C3.50662 5.51342 3.42516 5.43196 3.42516 5.3332C3.42516 5.23444 3.50662 5.15298 3.61096 5.15298C3.7153 5.15298 3.79676 5.23444 3.79676 5.3332C3.80234 5.43196 3.7153 5.51342 3.61096 5.51342ZM3.76775 4.86284C3.66341 4.86284 3.58195 4.78138 3.58195 4.68262C3.58195 4.58386 3.66899 4.5024 3.76775 4.5024C3.87209 4.5024 3.95355 4.58386 3.95355 4.68262C3.95913 4.78138 3.87209 4.86284 3.76775 4.86284ZM4.04673 4.29372C3.94239 4.29372 3.86093 4.21226 3.86093 4.1135C3.86093 4.01474 3.94239 3.93328 4.04673 3.93328C4.15107 3.93328 4.23253 4.01474 4.23253 4.1135C4.23811 4.21226 4.15107 4.29372 4.04673 4.29372ZM4.49421 3.78821C4.38987 3.78821 4.30841 3.70675 4.30841 3.60799C4.30841 3.50923 4.38987 3.42777 4.49421 3.42777C4.59855 3.42777 4.68001 3.50923 4.68001 3.60799C4.68001 3.70675 4.59855 3.78821 4.49421 3.78821ZM5.04045 3.40489C4.93611 3.40489 4.85465 3.32343 4.85465 3.22467C4.85465 3.12592 4.93611 3.04445 5.04045 3.04445C5.14479 3.04445 5.22625 3.12592 5.22625 3.22467C5.23183 3.32343 5.14479 3.40489 5.04045 3.40489ZM5.633 3.18394C5.52866 3.18394 5.4472 3.10248 5.4472 3.00372C5.4472 2.90496 5.52866 2.8235 5.633 2.8235C5.73734 2.8235 5.8188 2.90496 5.8188 3.00372C5.8188 3.10248 5.73734 3.18394 5.633 3.18394ZM6.23113 3.23025C6.1268 3.23025 6.04533 3.14879 6.04533 3.05003C6.04533 2.95128 6.1268 2.86981 6.23113 2.86981C6.33547 2.86981 6.41693 2.95128 6.41693 3.05003C6.42251 3.14879 6.33547 3.23025 6.23113 3.23025ZM6.67248 2.7426C6.56814 2.7426 6.48668 2.66114 6.48668 2.56238C6.48668 2.46362 6.57372 2.38216 6.67248 2.38216C6.77682 2.38216 6.85828 2.46362 6.85828 2.56238C6.85828 2.66114 6.77682 2.7426 6.67248 2.7426ZM7.24773 2.371C7.14339 2.371 7.06193 2.28954 7.06193 2.19078C7.06193 2.09202 7.14339 2.01056 7.24773 2.01056C7.35207 2.01056 7.43353 2.09202 7.43353 2.19078C7.43353 2.28954 7.35207 2.371 7.24773 2.371ZM7.84586 2.15619C7.74153 2.15619 7.66006 2.07472 7.66006 1.97596C7.66006 1.87721 7.74711 1.79574 7.84586 1.79574C7.9502 1.79574 8.03166 1.87721 8.03166 1.97596C8.03166 2.07472 7.9502 2.15619 7.84586 2.15619ZM9.05329 3.93328C8.94895 3.93328 8.86749 3.85182 8.86749 3.75306C8.86749 3.6543 8.95453 3.57284 9.05329 3.57284C9.15762 3.57284 9.23909 3.6543 9.23909 3.75306C9.23909 3.85182 9.15762 3.93328 9.05329 3.93328ZM9.05329 3.27712C8.94895 3.27712 8.86749 3.19566 8.86749 3.0969C8.86749 2.99814 8.95453 2.91668 9.05329 2.91668C9.15762 2.91668 9.23909 2.99814 9.23909 3.0969C9.23909 3.19566 9.15762 3.27712 9.05329 3.27712ZM9.05329 2.62096C8.94895 2.62096 8.86749 2.5395 8.86749 2.44074C8.86749 2.34199 8.95453 2.26052 9.05329 2.26052C9.15762 2.26052 9.23909 2.34199 9.23909 2.44074C9.23909 2.5395 9.15762 2.62096 9.05329 2.62096ZM8.46073 2.05185C8.3564 2.05185 8.2688 1.97039 8.2688 1.87163C8.2688 1.77287 8.35584 1.69141 8.46073 1.69141C8.56563 1.69141 8.64653 1.77287 8.64653 1.87163C8.64653 1.97596 8.55949 2.05185 8.46073 2.05185ZM14.5827 5.8906C14.745 5.97764 14.8036 6.17516 14.716 6.33194C14.6284 6.48873 14.4197 6.54676 14.2574 6.45971C14.2193 6.43984 14.1856 6.41257 14.1582 6.37949C14.1308 6.34641 14.1103 6.3082 14.0979 6.26709C14.0854 6.22598 14.0814 6.1828 14.0858 6.14009C14.0903 6.09738 14.1033 6.056 14.124 6.01837C14.1696 5.9424 14.2425 5.8868 14.3279 5.86303C14.4132 5.83926 14.5044 5.84913 14.5827 5.8906ZM10.2557 6.84303C10.1513 6.84303 10.0699 6.76157 10.0699 6.66281C10.0699 6.56405 10.1513 6.48259 10.2557 6.48259C10.36 6.48259 10.4415 6.56405 10.4415 6.66281C10.4471 6.76157 10.36 6.84303 10.2557 6.84303ZM5.52755 7.4473C5.42321 7.4473 5.34175 7.36584 5.34175 7.26708C5.34175 7.16832 5.42879 7.08686 5.52755 7.08686C5.63189 7.08686 5.71335 7.16832 5.71335 7.26708C5.71335 7.36584 5.63189 7.4473 5.52755 7.4473ZM7.85089 6.84303C7.74655 6.84303 7.66509 6.76157 7.66509 6.66281C7.66509 6.56405 7.75213 6.48259 7.85089 6.48259C7.95522 6.48259 8.03669 6.56405 8.03669 6.66281C8.03669 6.76157 7.95522 6.84303 7.85089 6.84303Z" fill="white"/>
<path d="M10.4471 5.53603C10.4996 5.64651 10.5576 5.72797 10.6329 5.79715L10.1163 5.73299C10.2132 5.68132 10.2983 5.61007 10.3662 5.52376C10.3928 5.53079 10.4202 5.53472 10.4477 5.53547L10.4471 5.53603ZM7.65901 5.53603C7.68835 5.53515 7.71752 5.53122 7.74605 5.52431C7.81021 5.61135 7.89725 5.6811 7.98987 5.73355L7.47321 5.79771C7.55467 5.72239 7.61827 5.63535 7.65901 5.53659V5.53603ZM6.65412 5.94836L6.20106 6.05884C6.28252 5.96008 6.33441 5.83789 6.34613 5.71011C6.42686 5.81443 6.53287 5.89643 6.65412 5.94836ZM4.92892 6.4946C4.97231 6.4241 5.00555 6.34784 5.02767 6.26807L5.05111 6.26249C5.09454 6.25212 5.13587 6.23438 5.1733 6.21004C5.2449 6.25645 5.32318 6.29164 5.40541 6.31438L4.92892 6.4946ZM9.05334 5.37924C9.09965 5.50144 9.18669 5.60578 9.29159 5.68724C9.21013 5.68724 9.1348 5.68166 9.05334 5.68166L8.81509 5.68724C8.92557 5.60578 9.00703 5.50144 9.05334 5.37924ZM12.9334 6.20391C12.968 6.22734 13.0148 6.24464 13.0556 6.25635L13.079 6.26193C13.0963 6.3434 13.1315 6.41872 13.1778 6.48846L12.6957 6.30266C12.7808 6.2855 12.8617 6.25195 12.9339 6.20391H12.9334ZM11.9051 6.05884L11.452 5.94836C11.5724 5.89779 11.6767 5.81544 11.7539 5.71011C11.771 5.83811 11.8234 5.95884 11.9051 6.05884ZM12.4915 4.64162C12.6193 4.58918 12.7124 4.47926 12.7414 4.34535C12.9445 4.39166 13.1711 4.44411 13.3569 4.51943C13.5067 4.57521 13.6461 4.65575 13.7692 4.75768C13.868 5.00764 13.926 5.29778 13.9611 5.65209C13.8389 5.70453 13.758 5.82617 13.7112 5.94836C13.6359 6.13416 13.6359 6.3261 13.8445 6.47117C13.7981 6.47477 13.7514 6.46846 13.7076 6.45268C13.6637 6.4369 13.6238 6.41199 13.5903 6.37961C13.5568 6.34723 13.5306 6.30811 13.5133 6.26484C13.4961 6.22156 13.4882 6.17512 13.4902 6.12858C13.5302 6.08322 13.5599 6.02973 13.5773 5.9718C13.6353 5.75084 13.5019 5.53045 13.2754 5.478C13.0489 5.41998 12.8223 5.55333 12.7643 5.76814C12.7587 5.79157 12.7526 5.81445 12.7526 5.83789C12.5607 6.06442 12.1774 5.94836 12.1601 5.65209C12.5144 5.72183 12.6656 5.54775 12.7236 5.31508C12.776 5.12314 12.7526 4.92618 12.5261 4.80957C12.5144 4.7454 12.5088 4.68738 12.4915 4.64107V4.64162ZM6.50347 3.8404C7.17749 3.48051 8.05404 3.41635 8.73363 3.51511V3.56142C8.68432 3.63531 8.66528 3.72533 8.68044 3.81286C8.6956 3.9004 8.74381 3.97876 8.81509 4.03178C8.68732 4.07251 8.58856 4.16513 8.55397 4.32805C8.29843 4.38608 8.22868 4.57188 8.22868 4.7694C8.22868 5.00764 8.32744 5.21074 8.68732 5.22804C8.64659 5.36139 8.51882 5.45457 8.36761 5.45457C8.29881 5.45513 8.23156 5.43412 8.17532 5.39448C8.11907 5.35485 8.07666 5.2986 8.05404 5.23362C8.06576 5.19902 8.06576 5.16387 8.06576 5.12928C8.06576 4.90275 7.87382 4.72253 7.64171 4.72253C7.4096 4.72253 7.21766 4.90275 7.21766 5.12928C7.21629 5.19697 7.2345 5.26362 7.27011 5.32122C7.2649 5.39061 7.23793 5.4566 7.19306 5.50979C7.14818 5.56298 7.08767 5.60067 7.02014 5.61749C6.95163 5.63508 6.87931 5.63052 6.81355 5.60445C6.7478 5.57839 6.69198 5.53217 6.65412 5.47242C6.99671 5.36809 7.04302 5.14713 6.97941 4.91502C6.92696 4.72309 6.81091 4.56072 6.54978 4.5663C6.51164 4.48444 6.44585 4.41865 6.36398 4.3805C6.39858 4.1947 6.43931 4.0089 6.50347 3.8404ZM9.36691 3.50953C10.0465 3.41077 10.9292 3.47493 11.5971 3.83482C11.6626 4.0111 11.7073 4.19442 11.7304 4.38106C11.6486 4.41929 11.5829 4.48505 11.5446 4.56686C11.2835 4.56128 11.1669 4.72364 11.1206 4.91558C11.0564 5.14769 11.1033 5.36864 11.4459 5.47298C11.3705 5.58904 11.2249 5.6532 11.0798 5.61805C11.012 5.60178 10.9512 5.56425 10.9062 5.51095C10.8613 5.45765 10.8345 5.39136 10.8299 5.32177C10.8646 5.26382 10.8828 5.19742 10.8823 5.12984C10.8823 4.90331 10.6965 4.72309 10.4583 4.72309C10.2262 4.72309 10.0342 4.90331 10.0342 5.12984C10.0351 5.16489 10.039 5.1998 10.0459 5.23418C10.0226 5.2987 9.98003 5.3545 9.92395 5.39402C9.86786 5.43354 9.80099 5.45487 9.73238 5.45513C9.66205 5.45574 9.59331 5.43418 9.53592 5.39352C9.47853 5.35286 9.43541 5.29515 9.41267 5.2286C9.77255 5.2113 9.87131 5.00764 9.87131 4.76995C9.87131 4.56686 9.80156 4.38664 9.54602 4.32861C9.53169 4.26092 9.50013 4.19808 9.45438 4.14617C9.40863 4.09426 9.35025 4.05505 9.2849 4.03233C9.36636 3.96817 9.42439 3.86383 9.42439 3.75335C9.42439 3.68361 9.40095 3.61387 9.36636 3.56142L9.36691 3.50953ZM4.75539 4.51999C4.94119 4.45024 5.16772 4.39222 5.37082 4.34591C5.39983 4.47926 5.49301 4.58973 5.62078 4.64218C5.60086 4.69385 5.59285 4.74935 5.59735 4.80455C5.36524 4.9206 5.34738 5.11812 5.39983 5.31006C5.464 5.54217 5.60907 5.71681 5.96337 5.64706C5.95165 5.94334 5.56276 6.05939 5.37082 5.83286C5.37082 5.80943 5.36524 5.78655 5.3591 5.76312C5.30107 5.54217 5.06896 5.4144 4.84243 5.47298C4.6159 5.53157 4.48255 5.75196 4.54058 5.96677C4.55787 6.0248 4.58689 6.08283 4.62762 6.12356C4.6332 6.24575 4.56959 6.36181 4.45354 6.42542C4.39738 6.45262 4.33572 6.46655 4.27332 6.46615C4.48255 6.32666 4.48255 6.13528 4.40667 5.94334C4.35422 5.82728 4.2789 5.70509 4.15112 5.6532C4.18014 5.2989 4.23816 5.00876 4.33692 4.75879C4.44126 4.67733 4.57517 4.58471 4.75539 4.52055V4.51999ZM9.65761 6.5995L9.05334 6.81431L8.45521 6.5995L9.05334 6.38413L9.65761 6.5995ZM5.13257 7.38901L5.08012 7.5921L5.06283 7.66743L5.0221 7.644L4.819 7.53352L4.87145 7.34158L4.88316 7.30085L4.95291 7.32429L5.13257 7.38901ZM12.9736 7.38901L13.2235 7.29583L13.2352 7.33656L13.2877 7.53408L13.0902 7.63842L13.0494 7.66185L13.0321 7.58653L12.9736 7.38901Z" fill="#E62644"/>
<path d="M11.9051 6.05866C11.8236 5.95991 11.7717 5.83771 11.76 5.70994C11.6847 5.81428 11.5742 5.89574 11.4582 5.94819L11.9057 6.05866H11.9051ZM12.9334 6.20373C12.8637 6.25004 12.7822 6.2852 12.7013 6.30807L13.1834 6.49387C13.1374 6.42473 13.104 6.34805 13.0846 6.26734L13.0612 6.26176C13.0149 6.25004 12.9741 6.22717 12.9334 6.20373ZM9.05338 5.37907C9.00706 5.50127 8.9256 5.6056 8.81513 5.68707L9.05338 5.68149L9.29162 5.68707C9.18564 5.60801 9.10326 5.50152 9.05338 5.37907ZM4.92951 6.49443L5.41158 6.30863C5.33012 6.2852 5.24922 6.2506 5.17947 6.20429C5.14488 6.22773 5.09801 6.24502 5.05728 6.25674L5.03385 6.26232C5.00483 6.34378 4.97582 6.42469 4.92951 6.49443ZM6.65471 5.94819C6.53435 5.89762 6.43001 5.81526 6.35286 5.70994C6.33556 5.83771 6.28869 5.95991 6.20779 6.05866L6.65527 5.94819H6.65471ZM7.6596 5.53586C7.61887 5.63462 7.55526 5.72166 7.4738 5.79698L7.99047 5.73282C7.89424 5.68266 7.81082 5.61108 7.74664 5.52358C7.71762 5.52916 7.68861 5.5353 7.6596 5.5353V5.53586ZM10.4477 5.53586C10.4202 5.53524 10.3928 5.53131 10.3663 5.52414C10.3021 5.61118 10.215 5.68093 10.1163 5.73338L10.633 5.79754C10.5584 5.728 10.4974 5.64535 10.4527 5.55371L10.4477 5.53586ZM14.5833 5.89016C14.5051 5.84855 14.4138 5.83861 14.3284 5.86239C14.2431 5.88617 14.1701 5.94186 14.1247 6.01793C14.0376 6.17472 14.0956 6.37224 14.258 6.45928C14.3363 6.50075 14.4275 6.51062 14.5128 6.48684C14.5981 6.46307 14.6711 6.40747 14.7166 6.33151C14.7388 6.29423 14.753 6.25275 14.7582 6.2097C14.7635 6.16665 14.7597 6.12298 14.7472 6.08147C14.7346 6.03995 14.7136 6.0015 14.6854 5.96857C14.6572 5.93563 14.6224 5.90893 14.5833 5.89016ZM12.0217 4.72849C11.8415 4.68218 11.6557 4.78652 11.6094 4.9606C11.5631 5.13469 11.6735 5.31491 11.8532 5.35564C12.0334 5.40195 12.2192 5.29761 12.2655 5.12353C12.3118 4.94944 12.2014 4.76922 12.0217 4.72849ZM12.3297 4.08963C12.2254 4.08963 12.1439 4.17109 12.1439 4.26985C12.1439 4.36861 12.2309 4.45007 12.3297 4.45007C12.434 4.45007 12.5155 4.36861 12.5155 4.26985C12.5158 4.24564 12.5111 4.22163 12.5017 4.19929C12.4924 4.17694 12.4787 4.15673 12.4613 4.13987C12.4439 4.12301 12.4233 4.10986 12.4007 4.10123C12.378 4.09259 12.3539 4.08865 12.3297 4.08963ZM12.1729 3.43905C12.0686 3.43905 11.9871 3.52051 11.9871 3.61927C11.9871 3.71803 12.0742 3.79949 12.1729 3.79949C12.2773 3.79949 12.3587 3.71803 12.3587 3.61927C12.3587 3.52051 12.2773 3.43905 12.1729 3.43905ZM14.4963 5.14696C14.3919 5.14696 14.3105 5.22842 14.3105 5.32718C14.3105 5.42594 14.3919 5.5074 14.4963 5.5074C14.6006 5.5074 14.6821 5.42594 14.6821 5.32718C14.6821 5.22842 14.6006 5.14696 14.4963 5.14696ZM14.3395 4.50252C14.2351 4.50252 14.1537 4.58398 14.1537 4.68274C14.1537 4.7815 14.2351 4.86296 14.3395 4.86296C14.4438 4.86296 14.5253 4.7815 14.5253 4.68274C14.5253 4.58398 14.4438 4.50252 14.3395 4.50252ZM14.0605 3.9334C13.9562 3.9334 13.8747 4.01486 13.8747 4.11362C13.8747 4.21238 13.9617 4.29384 14.0605 4.29384C14.1648 4.29384 14.2463 4.21238 14.2463 4.11362C14.2463 4.01486 14.1648 3.9334 14.0605 3.9334ZM13.613 3.42789C13.5087 3.42789 13.4272 3.50935 13.4272 3.60811C13.4272 3.70687 13.5087 3.78833 13.613 3.78833C13.7173 3.78833 13.7988 3.70687 13.7988 3.60811C13.7988 3.50935 13.7173 3.42789 13.613 3.42789ZM13.0668 3.04458C12.9624 3.04458 12.881 3.12604 12.881 3.2248C12.881 3.32355 12.9624 3.40502 13.0668 3.40502C13.1711 3.40502 13.2526 3.32355 13.2526 3.2248C13.2526 3.12604 13.1711 3.04458 13.0668 3.04458ZM12.4742 2.81805C12.3699 2.81805 12.2884 2.89951 12.2884 2.99827C12.2884 3.09702 12.3699 3.17849 12.4742 3.17849C12.5786 3.17849 12.66 3.09702 12.66 2.99827C12.6656 2.89951 12.5786 2.81805 12.4742 2.81805ZM11.8761 2.87049C11.7717 2.87049 11.6903 2.95195 11.6903 3.05071C11.6903 3.14947 11.7717 3.23093 11.8761 3.23093C11.9804 3.23093 12.0619 3.14947 12.0619 3.05071C12.0619 2.95195 11.9804 2.87049 11.8761 2.87049ZM11.4347 2.3767C11.3304 2.3767 11.2489 2.45816 11.2489 2.55692C11.2489 2.65568 11.3304 2.73714 11.4347 2.73714C11.5391 2.73714 11.6205 2.65568 11.6205 2.55692C11.6261 2.45816 11.5391 2.3767 11.4347 2.3767ZM10.8595 2.01068C10.7551 2.01068 10.6737 2.09214 10.6737 2.1909C10.6737 2.28966 10.7551 2.37112 10.8595 2.37112C10.9638 2.37112 11.0453 2.28966 11.0453 2.1909C11.0453 2.09214 10.9638 2.01068 10.8595 2.01068ZM10.2614 1.79587C10.157 1.79587 10.0756 1.87733 10.0756 1.97609C10.0756 2.07485 10.157 2.15631 10.2614 2.15631C10.3657 2.15631 10.4472 2.07485 10.4472 1.97609C10.4527 1.87733 10.3657 1.79587 10.2614 1.79587ZM9.65151 1.69153C9.54717 1.69153 9.46571 1.77299 9.46571 1.87175C9.46571 1.97051 9.54717 2.05197 9.65151 2.05197C9.75584 2.05197 9.83731 1.97051 9.83731 1.87175C9.83731 1.77299 9.75584 1.69153 9.65151 1.69153ZM3.8493 6.45984C4.01167 6.37279 4.07025 6.17528 3.98265 6.01849C3.93749 5.9421 3.86452 5.88615 3.77904 5.86233C3.69355 5.83852 3.60217 5.84869 3.52401 5.89072C3.36165 5.97776 3.30306 6.17528 3.39066 6.33206C3.47826 6.48885 3.68693 6.54688 3.8493 6.45984ZM6.2541 5.3562C6.43432 5.30989 6.54424 5.13524 6.49793 4.96116C6.45162 4.78708 6.26582 4.68218 6.0856 4.72905C5.90538 4.77592 5.79546 4.95 5.84177 5.12408C5.86697 5.2087 5.92407 5.2802 6.001 5.32351C6.07794 5.36682 6.16869 5.37854 6.2541 5.3562ZM9.05338 5.01361C9.23917 5.01361 9.39038 4.86854 9.39038 4.68832C9.38966 4.64482 9.38036 4.60189 9.36302 4.56199C9.34568 4.52209 9.32065 4.48599 9.28934 4.45578C9.25804 4.42557 9.22109 4.40182 9.1806 4.38591C9.14011 4.36999 9.09687 4.36222 9.05338 4.36303C9.00988 4.36222 8.96665 4.36999 8.92615 4.38591C8.88566 4.40182 8.84871 4.42557 8.81741 4.45578C8.7861 4.48599 8.76107 4.52209 8.74373 4.56199C8.72639 4.60189 8.71709 4.64482 8.71637 4.68832C8.71637 4.86854 8.86757 5.01361 9.05338 5.01361ZM5.78318 4.45007C5.88752 4.45007 5.96898 4.36861 5.96898 4.26985C5.96898 4.17109 5.88752 4.08963 5.78318 4.08963C5.67884 4.08963 5.59738 4.17109 5.59738 4.26985C5.5918 4.36861 5.67884 4.45007 5.78318 4.45007ZM5.93997 3.79949C6.04431 3.79949 6.12577 3.71803 6.12577 3.61927C6.12577 3.52051 6.04431 3.43905 5.93997 3.43905C5.83563 3.43905 5.75417 3.52051 5.75417 3.61927C5.74859 3.71803 5.83563 3.79949 5.93997 3.79949ZM3.61105 5.51298C3.71539 5.51298 3.79685 5.43152 3.79685 5.33276C3.79685 5.234 3.71539 5.15254 3.61105 5.15254C3.50671 5.15254 3.42525 5.234 3.42525 5.33276C3.42525 5.43152 3.50671 5.51298 3.61105 5.51298ZM3.76784 4.8624C3.87218 4.8624 3.95364 4.78094 3.95364 4.68218C3.95219 4.63388 3.93197 4.58804 3.89729 4.55439C3.8626 4.52075 3.81616 4.50194 3.76784 4.50196C3.6635 4.50196 3.58204 4.58342 3.58204 4.68218C3.58204 4.78094 3.6635 4.8624 3.76784 4.8624ZM4.04682 4.29329C4.15116 4.29329 4.23262 4.21182 4.23262 4.11307C4.23262 4.01431 4.15116 3.93284 4.04682 3.93284C3.94248 3.93284 3.86102 4.01431 3.86102 4.11307C3.86102 4.21182 3.94806 4.29329 4.04682 4.29329ZM4.4943 3.78778C4.59864 3.78778 4.6801 3.70631 4.6801 3.60756C4.6801 3.5088 4.59864 3.42734 4.4943 3.42734C4.38996 3.42734 4.3085 3.5088 4.3085 3.60756C4.3085 3.70631 4.38996 3.78778 4.4943 3.78778ZM5.04054 3.40446C5.14488 3.40446 5.22634 3.323 5.22634 3.22424C5.22634 3.12548 5.14488 3.04402 5.04054 3.04402C4.9362 3.04402 4.85474 3.12548 4.85474 3.22424C4.85474 3.323 4.94178 3.40446 5.04054 3.40446ZM5.63309 3.18351C5.73743 3.18351 5.81889 3.10205 5.81889 3.00329C5.81889 2.90453 5.73743 2.82307 5.63309 2.82307C5.52875 2.82307 5.44729 2.90453 5.44729 3.00329C5.44729 3.10205 5.52875 3.18351 5.63309 3.18351ZM6.23122 3.22982C6.33556 3.22982 6.41702 3.14836 6.41702 3.0496C6.41702 2.95084 6.33556 2.86938 6.23122 2.86938C6.12689 2.86938 6.04542 2.95084 6.04542 3.0496C6.04542 3.14836 6.12689 3.22982 6.23122 3.22982ZM6.67257 2.74216C6.77691 2.74216 6.85837 2.6607 6.85837 2.56194C6.85837 2.46318 6.77691 2.38172 6.67257 2.38172C6.56823 2.38172 6.48677 2.46318 6.48677 2.56194C6.48677 2.6607 6.56823 2.74216 6.67257 2.74216ZM7.24782 2.37056C7.35216 2.37056 7.43362 2.2891 7.43362 2.19034C7.43362 2.09158 7.35216 2.01012 7.24782 2.01012C7.14348 2.01012 7.06202 2.09158 7.06202 2.19034C7.06202 2.2891 7.14348 2.37056 7.24782 2.37056ZM7.84595 2.15575C7.95029 2.15575 8.03175 2.07429 8.03175 1.97553C8.03175 1.87677 7.95029 1.79531 7.84595 1.79531C7.74162 1.79531 7.66015 1.87677 7.66015 1.97553C7.66015 2.07429 7.74162 2.15575 7.84595 2.15575ZM9.05338 3.93284C9.15771 3.93284 9.23917 3.85138 9.23917 3.75262C9.23917 3.65387 9.15771 3.5724 9.05338 3.5724C8.94904 3.5724 8.86757 3.65387 8.86757 3.75262C8.86757 3.85138 8.94904 3.93284 9.05338 3.93284ZM9.05338 3.27669C9.15771 3.27669 9.23917 3.19522 9.23917 3.09647C9.23917 2.99771 9.15771 2.91625 9.05338 2.91625C8.94904 2.91625 8.86757 2.99771 8.86757 3.09647C8.86757 3.19522 8.94904 3.27669 9.05338 3.27669ZM9.05338 2.62053C9.15771 2.62053 9.23917 2.53907 9.23917 2.44031C9.23917 2.34155 9.15771 2.26009 9.05338 2.26009C8.94904 2.26009 8.86757 2.34155 8.86757 2.44031C8.86757 2.53907 8.94904 2.62053 9.05338 2.62053ZM8.46082 2.05141C8.56516 2.05141 8.64662 1.96995 8.64662 1.87119C8.64517 1.82289 8.62496 1.77705 8.59027 1.7434C8.55558 1.70976 8.50915 1.69095 8.46082 1.69097C8.35649 1.69097 8.26889 1.77243 8.26889 1.87119C8.26889 1.97553 8.35593 2.05141 8.46082 2.05141ZM13.6186 6.49499C13.7754 6.57645 13.8976 6.5413 14.0482 6.48941C13.7983 6.36722 13.6649 6.2573 13.781 5.97274C13.8334 5.84497 13.897 5.74621 14.0365 5.70548C13.9495 4.59626 13.6297 4.06731 12.5847 3.56236L12.5094 3.5858C12.5094 3.59751 12.5149 3.60923 12.5149 3.62653C12.5149 3.77773 12.4279 3.85306 12.3118 3.93452C12.4977 3.96911 12.6662 4.05671 12.6662 4.27153C12.6662 4.45175 12.5384 4.5505 12.376 4.59681C12.4285 4.69557 12.4402 4.7363 12.4285 4.85236C12.6433 4.95112 12.6896 5.07889 12.6316 5.2937C12.5501 5.59556 12.3643 5.62457 12.068 5.54925C12.0521 5.64149 12.068 5.73641 12.1131 5.8184C12.1583 5.9004 12.23 5.96459 12.3165 6.00043C12.4029 6.03627 12.499 6.04161 12.589 6.01559C12.6789 5.98957 12.7573 5.93372 12.8112 5.85724C12.8112 5.82823 12.8168 5.80479 12.8229 5.77578C12.8693 5.6017 13.055 5.49122 13.2414 5.53753C13.4278 5.58384 13.5377 5.76406 13.4852 5.93815C13.4679 5.99617 13.4389 6.04248 13.3982 6.08322C13.3926 6.2573 13.4679 6.41408 13.6191 6.49555L13.6186 6.49499ZM8.76268 2.43473C8.76268 2.41129 8.76826 2.38842 8.76826 2.3594C7.40349 2.26065 6.42149 3.16119 6.28814 4.4272C6.41033 4.47351 6.45664 4.52595 6.50909 4.64201C6.74733 4.63029 6.85167 4.72347 6.9097 4.93215C6.99116 5.22842 6.83996 5.34448 6.54368 5.4198C6.63072 5.61174 6.81094 5.74509 7.04305 5.68707C7.131 5.66699 7.20946 5.61751 7.26546 5.54679C7.32146 5.47608 7.35166 5.38837 7.35105 5.29817C7.31644 5.24674 7.29816 5.18607 7.2986 5.12408C7.2986 4.94386 7.4498 4.79322 7.64118 4.79322C7.82698 4.79322 7.98377 4.93828 7.98377 5.12408C7.98366 5.15957 7.97782 5.1948 7.96647 5.22842C7.99103 5.31519 8.04369 5.39135 8.11619 5.44496C8.18869 5.49858 8.27694 5.52663 8.36709 5.5247C8.60534 5.5247 8.74482 5.3562 8.77942 5.14696C8.47756 5.14696 8.30292 5.07164 8.30292 4.76364C8.30292 4.54269 8.38438 4.43278 8.61649 4.38591C8.66894 4.11307 8.81401 4.09577 9.04612 4.06062C9.28437 4.10135 9.42386 4.11307 9.47575 4.38591C9.70786 4.43222 9.78932 4.54269 9.78932 4.76364C9.78932 5.07164 9.61524 5.14696 9.31283 5.14696C9.34742 5.3562 9.48691 5.5247 9.72516 5.5247C9.81487 5.52478 9.90223 5.49603 9.97437 5.44268C10.0465 5.38934 10.0996 5.31423 10.1258 5.22842C10.1144 5.19481 10.1086 5.15957 10.1085 5.12408C10.1085 4.94386 10.2597 4.79322 10.4511 4.79322C10.6424 4.79322 10.7936 4.93828 10.7936 5.12408C10.7941 5.18608 10.7759 5.24677 10.7412 5.29817C10.7468 5.48397 10.8634 5.64075 11.0492 5.68707C11.2813 5.74509 11.4615 5.61174 11.5486 5.4198C11.2523 5.34448 11.1072 5.22786 11.1825 4.93215C11.2406 4.72291 11.3449 4.63029 11.5832 4.64201C11.6412 4.52595 11.6819 4.47351 11.8041 4.4272C11.6708 3.16119 10.6949 2.26065 9.32399 2.3594C9.32894 2.38419 9.33081 2.40949 9.32957 2.43473C9.32957 2.49889 9.30613 2.55078 9.27154 2.60323V2.92294C9.30613 2.97539 9.32957 3.02728 9.32957 3.09144C9.32957 3.15561 9.30613 3.2075 9.27154 3.25995L9.27712 3.59082C9.30613 3.63713 9.32957 3.68958 9.32957 3.7476C9.32957 3.93954 9.18449 3.99143 9.03943 4.0556C8.89436 3.99143 8.74929 3.9334 8.74929 3.7476C8.74929 3.68344 8.77272 3.63155 8.80732 3.5791V3.26553C8.77107 3.21668 8.75081 3.15783 8.74929 3.09702C8.74929 3.03286 8.77272 2.98097 8.80732 2.92852V2.60323C8.77718 2.55218 8.7612 2.49401 8.76101 2.43473H8.76268ZM4.32524 5.97162C4.43571 6.25618 4.30794 6.36666 4.05798 6.48829C4.20918 6.54074 4.33082 6.57533 4.4876 6.49387C4.5597 6.45702 4.61857 6.39868 4.65605 6.3269C4.69354 6.25513 4.70779 6.17348 4.69684 6.09326C4.65594 6.0531 4.62598 6.00317 4.6098 5.94819C4.59036 5.86119 4.60559 5.77005 4.65226 5.6941C4.69893 5.61816 4.77337 5.56339 4.85976 5.54144C4.90951 5.52834 4.96157 5.52661 5.01208 5.53638C5.06259 5.54616 5.11025 5.56718 5.15152 5.59789C5.19279 5.6286 5.22662 5.66822 5.25049 5.71379C5.27435 5.75937 5.28765 5.80973 5.28939 5.86115C5.55051 6.19202 6.07946 6.01793 6.03259 5.55315C5.73631 5.6229 5.55051 5.59389 5.46905 5.29761C5.41103 5.08838 5.45734 4.95502 5.67215 4.85627C5.65936 4.76758 5.67791 4.6772 5.7246 4.60072C5.56223 4.55441 5.43446 4.45565 5.43446 4.27543C5.43446 4.05448 5.60296 3.97358 5.78876 3.93842C5.67829 3.85138 5.59125 3.78164 5.59125 3.63043C5.59125 3.61871 5.59125 3.60142 5.51592 3.57798C4.45301 4.08349 4.15674 4.59458 4.06411 5.71552C4.20918 5.75011 4.27335 5.84329 4.32524 5.97107V5.97162ZM13.363 7.02282C12.0563 6.43026 10.5922 6.09326 9.05338 6.09326C7.51453 6.09326 6.05658 6.42413 4.74929 7.01668C4.66225 7.05741 4.56349 7.01668 4.52276 6.93522C4.48203 6.84818 4.52276 6.78401 4.56349 6.71427C4.29623 6.79573 4.09871 6.79573 3.8666 6.62109C3.43697 6.90007 2.94318 6.32481 3.26847 6.06369C3.11726 5.87175 3.11726 5.66307 3.33821 5.52358C3.29639 5.46623 3.27392 5.39705 3.27405 5.32607C3.27405 5.11125 3.44255 5.02421 3.62835 4.98906C3.51787 4.9076 3.43083 4.83227 3.43083 4.68107C3.43083 4.46011 3.61105 4.36749 3.80243 4.3502C3.74998 4.26874 3.70925 4.21071 3.70925 4.11195C3.70925 3.93173 3.86046 3.78666 4.05184 3.78666C4.10987 3.78666 4.16789 3.80396 4.22034 3.82125C4.18575 3.74593 4.15618 3.6879 4.15618 3.60644C4.15618 3.42622 4.30738 3.28115 4.49876 3.28115C4.59194 3.28115 4.64383 3.31574 4.72529 3.35089C4.71189 3.30952 4.70401 3.26656 4.70186 3.22312C4.70186 3.0429 4.85307 2.89225 5.04445 2.89225C5.14878 2.89225 5.20681 2.93298 5.28827 2.98543C5.32901 2.81135 5.42776 2.67186 5.63086 2.67186C5.78207 2.67186 5.86911 2.75332 5.94443 2.8638C6.0259 2.77676 6.10122 2.71873 6.22899 2.71873C6.28144 2.71873 6.32775 2.73045 6.3802 2.74216C6.34874 2.68506 6.33079 2.62149 6.32775 2.55636C6.32775 2.37614 6.47896 2.23107 6.66476 2.23107C6.77523 2.23107 6.83326 2.27738 6.9203 2.32983C6.91472 2.2891 6.89687 2.23665 6.89687 2.19034C6.89687 2.01012 7.04807 1.86505 7.23945 1.86505C7.34993 1.86505 7.40796 1.90578 7.48942 1.96381C7.53015 1.78973 7.62891 1.65024 7.83814 1.65024C7.96591 1.65024 8.03566 1.70269 8.11712 1.78359C8.18129 1.6441 8.27391 1.54534 8.44799 1.54534C8.49386 1.54662 8.53909 1.55646 8.58134 1.57436C8.67049 1.46823 8.79377 1.39643 8.93007 1.37126V1.02309H8.64551V0.81386H8.93007V0.564453H9.1566V0.814418H9.44116V1.01751H9.1566V1.36624C9.29241 1.39269 9.4153 1.46426 9.50532 1.56934C9.54757 1.55144 9.5928 1.5416 9.63867 1.54032C9.81276 1.54032 9.90594 1.64466 9.96954 1.77857C10.051 1.69711 10.1263 1.64522 10.2485 1.64522C10.4578 1.64522 10.5565 1.79029 10.5911 1.95879C10.6726 1.90076 10.7362 1.86003 10.8467 1.86003C11.0325 1.86003 11.1892 2.0051 11.1892 2.18532C11.1892 2.23163 11.1775 2.28408 11.1719 2.32481C11.259 2.27236 11.317 2.23163 11.4275 2.23163C11.6133 2.23163 11.7701 2.3767 11.7701 2.55692C11.7701 2.62667 11.7466 2.67911 11.7176 2.74272C11.7669 2.7288 11.8177 2.72093 11.8688 2.71929C11.9966 2.71929 12.0719 2.77731 12.1534 2.86436C12.2287 2.7483 12.3158 2.67242 12.467 2.67242C12.6762 2.67242 12.775 2.81749 12.8157 2.98599C12.8971 2.93354 12.9552 2.89281 13.0595 2.89281C13.2453 2.89281 13.4021 3.03788 13.4021 3.22368C13.4021 3.26441 13.3904 3.31072 13.3848 3.35145C13.4601 3.31072 13.5182 3.28171 13.6058 3.28171C13.7916 3.28171 13.9483 3.42678 13.9483 3.607C13.9483 3.68846 13.9193 3.74649 13.8842 3.81623C13.9422 3.79893 13.9947 3.78164 14.0583 3.78164C14.2441 3.78164 14.4008 3.92671 14.4008 4.10693C14.4008 4.20569 14.3601 4.26371 14.3077 4.34518C14.5052 4.36247 14.6854 4.45565 14.6854 4.67604C14.6854 4.82725 14.5984 4.90258 14.4879 4.98404C14.6737 5.02477 14.8422 5.10623 14.8422 5.32104C14.8422 5.40251 14.8188 5.4544 14.778 5.51856C15.0046 5.65805 14.999 5.86115 14.8478 6.05308C15.0453 6.20987 14.9409 6.4537 14.778 6.58147C14.6095 6.70924 14.4354 6.73268 14.2496 6.61049C14.0175 6.78457 13.82 6.78457 13.5527 6.70366L13.5935 6.78513C13.6459 6.93019 13.512 7.07526 13.3614 7.02337L13.363 7.02282ZM5.19677 7.35368L4.91779 7.25493L4.89436 7.2142C4.87092 7.22591 4.85363 7.22591 4.83633 7.23149C4.761 7.23707 4.76658 7.15617 4.80173 7.13831C6.09118 6.5519 7.52569 6.22661 9.0478 6.22661C10.5699 6.22661 12.0044 6.5519 13.2939 7.13831C13.3284 7.15561 13.3346 7.23707 13.2593 7.23149C13.242 7.23149 13.2247 7.22591 13.2012 7.2142L13.1778 7.25493L12.8988 7.35368L12.9803 7.66168L12.9568 7.71413C13.1019 7.77829 13.0032 7.88263 12.9396 7.85361C11.7544 7.31351 10.436 7.01724 9.04222 7.01724C7.64844 7.01724 6.32998 7.31351 5.14488 7.85361C5.11587 7.86533 5.08071 7.85361 5.06342 7.81902C5.04612 7.78443 5.06342 7.76099 5.08685 7.73756C5.09857 7.72584 5.11587 7.72026 5.13316 7.71413L5.10973 7.66168L5.19677 7.35368ZM6.73618 7.12715L7.32873 6.72654L6.6084 6.65122L6.01585 7.05183L6.73618 7.12715ZM12.5791 7.49875C12.7125 7.49875 12.8229 7.39442 12.8229 7.26664C12.8229 7.13887 12.7125 7.03453 12.5791 7.03453C12.4458 7.03453 12.3353 7.13887 12.3353 7.26664C12.3409 7.39442 12.4458 7.49875 12.5791 7.49875ZM7.85098 6.89449C7.98433 6.89449 8.0948 6.79015 8.0948 6.66237C8.0948 6.5346 7.98433 6.43026 7.85098 6.43026C7.71762 6.43026 7.60715 6.5346 7.60715 6.66237C7.60715 6.79015 7.71762 6.89449 7.85098 6.89449ZM5.52764 7.49875C5.66099 7.49875 5.77147 7.39442 5.77147 7.26664C5.77147 7.13887 5.66713 7.03453 5.52764 7.03453C5.39429 7.03453 5.28381 7.13887 5.28381 7.26664C5.28381 7.39442 5.39429 7.49875 5.52764 7.49875ZM10.2558 6.89449C10.3891 6.89449 10.4996 6.79015 10.4996 6.66237C10.4996 6.5346 10.3891 6.43026 10.2558 6.43026C10.2249 6.42975 10.1941 6.43535 10.1654 6.44676C10.1367 6.45817 10.1105 6.47515 10.0883 6.49672C10.0662 6.5183 10.0485 6.54404 10.0364 6.57247C10.0242 6.6009 10.0178 6.63146 10.0175 6.66237C10.0175 6.79015 10.128 6.89449 10.2558 6.89449ZM11.3711 7.1266L12.0915 7.05127L11.4989 6.65066L10.7786 6.72598L11.3711 7.1266ZM9.80885 6.59821L9.05338 6.32593L8.29846 6.59877L9.05338 6.87161L9.80885 6.59821ZM1.23527 15.8692C1.23527 20.0221 4.75487 23.4201 9.05338 23.4201C13.3575 23.4201 16.8771 20.0221 16.8771 15.8692C16.8771 11.7046 13.3575 8.31839 9.05338 8.31839C4.74929 8.31839 1.23527 11.7046 1.23527 15.8692ZM17.7252 15.8692C17.7252 20.4752 13.8334 24.2392 9.05338 24.2392C4.27335 24.2392 0.381592 20.4752 0.381592 15.8692C0.381592 11.2577 4.27335 7.49373 9.05338 7.49373C13.8334 7.48815 17.7252 11.2516 17.7252 15.8692ZM7.91514 12.3084L9.0478 13.4237L10.1051 12.3435C9.73353 12.2503 9.37922 12.1811 8.98977 12.1694C8.62988 12.1521 8.26386 12.2336 7.91514 12.3089V12.3084ZM10.8946 11.53L12.5557 9.87454C14.7049 11.0652 16.1512 13.2954 16.1512 15.8452C16.1512 17.5063 15.5413 19.0284 14.513 20.2191L13.7402 19.4697C14.6112 18.4414 15.1809 17.4192 15.1809 15.7816C15.1809 14.0336 14.234 12.0818 12.7242 11.0714L11.7254 12.0589C12.2365 12.4305 12.6433 12.8021 12.9859 13.325L12.2248 13.9582C11.923 13.4471 11.5335 13.0873 11.0341 12.7558L9.0478 14.7773L6.98558 12.7268C5.91709 13.4471 5.28939 14.4749 5.26038 15.7532C5.22578 17.455 6.36402 18.6339 7.96145 19.1511V15.7359H10.4008V16.4389H8.90831V17.3506H10.3835V18.1524H8.90831V19.3024C10.0002 19.3548 11.1675 18.745 11.8761 17.9895L12.6081 18.7037C11.673 19.7493 10.3255 20.2777 8.91389 20.2894V21.3406H7.96703V20.1789C5.8122 19.6622 4.24991 17.8383 4.27893 15.66C4.29623 14.1675 5.12089 12.9416 6.31771 12.0707L5.30725 11.0602C3.73883 12.2972 2.89687 13.8076 2.82712 15.7705C2.77467 17.5074 3.70423 18.9012 4.29065 19.4876L3.61105 20.1555C2.55986 18.9704 1.93829 17.5068 1.93829 15.8397C1.93829 13.3071 3.38452 11.0769 5.51592 9.88626L7.2004 11.5824C7.79853 11.3615 8.42009 11.2454 9.05896 11.2454C9.66831 11.2545 10.2715 11.3685 10.8422 11.5824L10.8946 11.53Z" fill="#FCBF00"/>
<path d="M17.9806 15.8694C17.9806 20.6149 13.9728 24.4888 9.05331 24.4888C4.12765 24.4888 0.125977 20.6149 0.125977 15.8694C0.125977 11.1179 4.13379 7.23839 9.05331 7.23839C13.979 7.23839 17.9806 11.1184 17.9806 15.8694ZM17.7251 15.8694C17.7251 11.2579 13.8333 7.49393 9.05331 7.49393C4.27328 7.49393 0.381521 11.2574 0.381521 15.8694C0.381521 20.4754 4.27328 24.2394 9.05331 24.2394C13.8333 24.2394 17.7251 20.4754 17.7251 15.8694ZM1.49074 15.8694C1.49074 19.8828 4.89429 23.1703 9.05331 23.1703C13.2123 23.1703 16.6159 19.8884 16.6159 15.8694C16.6159 11.8443 13.2123 8.57414 9.05331 8.57414C4.89484 8.56856 1.49074 11.8443 1.49074 15.8694ZM1.2352 15.8694C1.2352 11.7048 4.7548 8.31859 9.05331 8.31859C13.3574 8.31859 16.877 11.7048 16.877 15.8694C16.877 20.0223 13.3574 23.4203 9.05331 23.4203C4.74922 23.4147 1.2352 20.0223 1.2352 15.8694ZM9.97059 14.2023L14.1988 18.4132C14.6809 17.6465 14.9247 16.8626 14.9247 15.7763C14.9247 13.8825 13.8211 12.1579 12.7581 11.3913L12.1193 12.0245C12.6011 12.3942 13.009 12.8514 13.3217 13.372L12.1483 14.3535C11.8693 13.8189 11.573 13.4418 11.0681 13.0875L9.97059 14.2023ZM15.3315 19.5402C14.5704 20.789 13.4087 21.7765 12.0322 22.3691L11.3476 21.6951L10.0699 20.4346C9.77389 20.499 9.47225 20.534 9.16936 20.539V21.5963H7.70584V20.3766C5.51027 19.8014 3.9943 17.815 4.01773 15.6602C4.02331 15.3003 4.07576 14.9516 4.1628 14.6146L3.44248 13.906C3.22767 14.4868 3.10547 15.114 3.0826 15.7818C3.04187 17.1176 3.64613 18.5638 4.65102 19.4872L3.59369 20.5267C2.35056 19.1792 1.67096 17.6633 1.67096 15.8393C1.67096 13.179 3.18135 10.8556 5.55658 9.5779L7.25835 11.297C7.82189 11.0995 8.46075 11.0007 9.04717 11.0007C9.68045 11.0063 10.2551 11.1168 10.7724 11.297L12.5032 9.56005C14.8962 10.8439 16.4061 13.1672 16.4061 15.8443C16.4117 17.2035 16.0345 18.4349 15.3315 19.5386V19.5402ZM7.69914 18.1057L5.51585 15.9565C5.5683 17.1589 6.3288 18.2971 7.6997 18.8026L7.69914 18.1057ZM10.8946 11.5302L10.8365 11.5882C10.2674 11.369 9.66319 11.255 9.05331 11.2518C8.41444 11.2518 7.79288 11.3678 7.19475 11.5888L5.51027 9.89259C3.37887 11.0777 1.93264 13.3079 1.93264 15.8404C1.93264 17.5132 2.55421 18.9711 3.6054 20.1562L4.285 19.4883C3.69858 18.9019 2.76902 17.5076 2.82147 15.7712C2.89122 13.8078 3.73318 12.2979 5.3016 11.061L6.31206 12.0714C5.1158 12.9424 4.29058 14.1682 4.27328 15.6608C4.24427 17.839 5.80097 19.6624 7.96138 20.1797V21.3413H8.90824V20.289C10.3254 20.2773 11.6729 19.7489 12.6025 18.7033L11.8704 17.9891C11.1618 18.744 10.0002 19.36 8.90266 19.302V18.152H10.3779V17.3503H8.90266V16.4386H10.3952V15.7355H7.9558V19.1508C6.35837 18.6341 5.21455 17.4546 5.25473 15.7528C5.28374 14.4751 5.91089 13.4468 6.97993 12.7265L9.04215 14.777L11.0285 12.7555C11.534 13.0863 11.9173 13.4468 12.2192 13.9579L12.9802 13.3246C12.6376 12.8018 12.2309 12.4302 11.7198 12.0586L12.7185 11.071C14.2289 12.0815 15.1752 14.0332 15.1752 15.7813C15.1752 17.4133 14.6061 18.4416 13.7346 19.4694L14.5073 20.2187C15.5646 19.007 16.1467 17.453 16.1455 15.8449C16.1455 13.295 14.6993 11.0649 12.55 9.87418L10.8946 11.5302ZM7.91507 12.3085C8.26379 12.2332 8.62926 12.1518 8.9897 12.1635C9.3786 12.1752 9.7329 12.2449 10.1051 12.3376L9.04773 13.4178L7.91507 12.3085ZM8.43174 12.4598L9.04159 13.064L9.61071 12.4832C9.40761 12.4425 9.19837 12.4252 8.97742 12.419C8.84407 12.4134 8.64042 12.4307 8.43118 12.4598H8.43174ZM12.9741 7.38903L13.0265 7.59213L13.05 7.66188L13.0907 7.63844L13.2882 7.5341L13.2358 7.33659L13.224 7.29586L12.9741 7.38903ZM13.363 7.02301C13.5142 7.07546 13.6475 6.92426 13.5778 6.79648L13.5371 6.71502C13.8043 6.79648 14.0018 6.79648 14.2339 6.62184C14.4197 6.74404 14.5883 6.7206 14.7623 6.59283C14.9308 6.46506 15.0296 6.22123 14.8321 6.06444C14.9833 5.87251 14.9889 5.66383 14.7623 5.52992C14.8031 5.46575 14.8265 5.41386 14.8265 5.3324C14.8265 5.11759 14.658 5.03055 14.4722 4.9954C14.5827 4.90835 14.6697 4.83861 14.6697 4.6874C14.6697 4.46645 14.4895 4.37383 14.292 4.35653C14.3444 4.27507 14.3852 4.22318 14.3852 4.11829C14.3852 3.93807 14.2339 3.793 14.0426 3.793C13.9845 3.793 13.9265 3.81029 13.8685 3.82759C13.9031 3.75227 13.9326 3.69982 13.9326 3.61836C13.9326 3.43814 13.7814 3.29307 13.5901 3.29307C13.4969 3.29307 13.445 3.32208 13.3691 3.36281C13.3747 3.32208 13.3864 3.27577 13.3864 3.23504C13.3848 3.14575 13.3478 3.06076 13.2836 2.99872C13.2193 2.93668 13.1331 2.90268 13.0438 2.90417C12.9395 2.90417 12.8815 2.9449 12.8 2.99735C12.7593 2.82327 12.6605 2.68378 12.4513 2.68378C12.3001 2.68378 12.213 2.76524 12.1377 2.87571C12.0562 2.78867 11.9809 2.73064 11.8531 2.73064C11.8007 2.73064 11.7488 2.74236 11.7019 2.75408C11.7309 2.68991 11.7544 2.63802 11.7544 2.56828C11.7544 2.38806 11.6032 2.24299 11.4118 2.24299C11.3013 2.24299 11.2433 2.28372 11.1562 2.33617C11.1618 2.29544 11.1735 2.24299 11.1735 2.19668C11.1735 2.01646 11.0223 1.87139 10.831 1.87139C10.7205 1.87139 10.6625 1.91212 10.5754 1.97015C10.5347 1.79606 10.4359 1.65658 10.2328 1.65658C10.1051 1.65658 10.0353 1.70902 9.95385 1.78993C9.88411 1.65044 9.79706 1.55168 9.62298 1.55168C9.57053 1.55168 9.53594 1.5634 9.48963 1.58069C9.40049 1.47457 9.2772 1.40277 9.1409 1.3776V1.02887H9.42546V0.814059H9.1409V0.564652H8.91437V0.814617H8.62982V1.01771H8.91437V1.36644C8.76931 1.40103 8.67613 1.45348 8.56565 1.56953C8.52339 1.55165 8.47817 1.54181 8.4323 1.54052C8.25821 1.54052 8.16504 1.64486 8.10143 1.77877C8.01997 1.69731 7.94464 1.64542 7.82245 1.64542C7.61322 1.64542 7.51446 1.79049 7.47373 1.95899C7.39226 1.90096 7.32866 1.86023 7.22376 1.86023C7.03796 1.86023 6.88118 2.0053 6.88118 2.18552C6.88118 2.23183 6.89289 2.28428 6.90461 2.32501C6.81757 2.27256 6.7534 2.22625 6.64906 2.22625C6.60557 2.22544 6.56233 2.23321 6.52184 2.24913C6.48135 2.26504 6.4444 2.28879 6.4131 2.319C6.38179 2.34921 6.35676 2.38531 6.33942 2.42521C6.32208 2.46511 6.31278 2.50804 6.31206 2.55154C6.31206 2.62128 6.33549 2.67373 6.36451 2.73734C6.31206 2.72562 6.26575 2.71391 6.2133 2.71391C6.08553 2.71391 6.0102 2.77193 5.92874 2.85897C5.85342 2.74292 5.76637 2.66704 5.61517 2.66704C5.40593 2.66704 5.30718 2.81211 5.27258 2.98061C5.20842 2.9343 5.14481 2.89357 5.04047 2.89357C4.95118 2.89207 4.86495 2.92608 4.80072 2.98812C4.73648 3.05016 4.6995 3.13515 4.69789 3.22444C4.69789 3.26517 4.7096 3.31148 4.71518 3.35221C4.64991 3.30748 4.5728 3.2832 4.49367 3.28246C4.30787 3.28246 4.15109 3.42753 4.15109 3.60775C4.15109 3.68922 4.1801 3.74724 4.21525 3.81699C4.1628 3.80527 4.11091 3.78797 4.04675 3.78797C3.86095 3.78797 3.70416 3.93304 3.70416 4.11326C3.70416 4.21202 3.74489 4.27005 3.79734 4.35151C3.6054 4.36881 3.43132 4.46199 3.43132 4.68238C3.43132 4.83359 3.51836 4.90891 3.62884 4.99037C3.44304 5.0311 3.27453 5.11257 3.27453 5.32738C3.27453 5.40884 3.29797 5.46073 3.3387 5.5249C3.11775 5.66439 3.11775 5.87362 3.26895 6.065C2.94366 6.32613 3.43746 6.90696 3.86709 6.6224C4.0992 6.79648 4.29671 6.79648 4.56397 6.71558C4.52938 6.7909 4.48251 6.85507 4.52324 6.93653C4.53247 6.95701 4.54572 6.97543 4.56221 6.99068C4.5787 7.00594 4.59809 7.01771 4.61923 7.02532C4.64037 7.03292 4.66282 7.03619 4.68525 7.03493C4.70767 7.03367 4.72962 7.02791 4.74977 7.01799C6.05651 6.42544 7.51446 6.09457 9.05386 6.09457C10.5988 6.10015 12.0568 6.43158 13.3635 7.02413L13.363 7.02301ZM5.13253 7.38903L4.95231 7.32487L4.88257 7.30144L4.87085 7.34217L4.8184 7.5341L5.01592 7.63844L5.05665 7.66188L5.07395 7.58655L5.13253 7.38903ZM5.01648 7.70261L4.75535 7.56312L4.81952 7.31315C4.72076 7.30144 4.67445 7.19096 4.72076 7.11564C4.6672 7.12346 4.61254 7.11419 4.56455 7.08915C4.51657 7.0641 4.47771 7.02456 4.4535 6.97615C4.43007 6.92984 4.42449 6.88297 4.43007 6.83666C4.33315 6.85612 4.23331 6.85587 4.13649 6.83594C4.03968 6.816 3.94787 6.77677 3.86653 6.7206C3.40789 6.98786 2.86778 6.349 3.1635 6.05273C3.03015 5.86079 3.06474 5.62868 3.23324 5.50091C3.20487 5.44737 3.19084 5.38739 3.19251 5.32682C3.19251 5.15832 3.30299 5.01325 3.45364 4.94908C3.38645 4.87631 3.34919 4.78087 3.3493 4.68182C3.3493 4.48989 3.48879 4.3331 3.66901 4.28679C3.64063 4.23325 3.6266 4.17328 3.62828 4.11271C3.62828 3.88618 3.81408 3.70595 4.04675 3.70595H4.08748C4.07301 3.64504 4.07266 3.58163 4.08645 3.52056C4.10025 3.45949 4.12782 3.40238 4.16707 3.3536C4.20632 3.30482 4.2562 3.26566 4.31291 3.23912C4.36961 3.21257 4.43163 3.19935 4.49423 3.20044C4.53743 3.20007 4.58046 3.2059 4.622 3.21774C4.622 2.99679 4.81394 2.81713 5.04047 2.81713C5.1072 2.81725 5.17297 2.83311 5.23241 2.86344C5.29044 2.70665 5.44722 2.59618 5.62744 2.59618C5.68942 2.59608 5.75066 2.60957 5.80686 2.63569C5.86306 2.66181 5.91286 2.69994 5.95273 2.74738C6.03059 2.68158 6.12979 2.64647 6.23171 2.64862H6.26073C6.25515 2.61961 6.24901 2.5906 6.24901 2.56158C6.24901 2.33505 6.43481 2.15483 6.66748 2.15483C6.7255 2.15483 6.77795 2.16655 6.82426 2.18385C6.82984 1.96289 7.0162 1.78323 7.24273 1.78323C7.31806 1.78323 7.3878 1.80053 7.44583 1.83568C7.50386 1.67889 7.66064 1.56842 7.84086 1.56842C7.93962 1.56842 8.02666 1.59743 8.09641 1.65546C8.17173 1.54498 8.2995 1.46966 8.45071 1.46966C8.49144 1.46966 8.52604 1.47524 8.56119 1.48696C8.63093 1.41721 8.71239 1.36476 8.81115 1.32459L8.85188 1.30729V1.09806H8.56732V0.738735H8.85188V0.48877H9.24078V0.738735H9.52534V1.09862H9.24078V1.30785L9.28151 1.32515C9.37642 1.3589 9.46205 1.41452 9.53148 1.48751C9.56607 1.4758 9.60122 1.47022 9.64195 1.47022C9.79316 1.47022 9.92093 1.54554 9.99625 1.65602C10.066 1.60357 10.1586 1.56898 10.2518 1.56898C10.432 1.56898 10.5888 1.67945 10.6468 1.83624C10.7049 1.80164 10.7746 1.78379 10.8499 1.78379C11.082 1.78379 11.2684 1.96401 11.2684 2.1844C11.3147 2.16711 11.3672 2.15539 11.4252 2.15539C11.6573 2.15539 11.8437 2.33561 11.8437 2.56214C11.8437 2.59115 11.8437 2.62017 11.8319 2.64918H11.861C11.9622 2.65083 12.0602 2.6855 12.1399 2.74794C12.2153 2.65476 12.3319 2.59673 12.4652 2.59673C12.6454 2.59673 12.8022 2.70721 12.8603 2.864C12.9197 2.83367 12.9855 2.81781 13.0522 2.81769C13.2843 2.81769 13.4707 2.99791 13.4707 3.2183C13.5122 3.20647 13.5552 3.20065 13.5984 3.201C13.8305 3.201 14.0169 3.38122 14.0169 3.60775C14.0169 3.64235 14.0113 3.6775 14.0052 3.71209H14.0459C14.278 3.71209 14.4644 3.89231 14.4644 4.11884C14.4644 4.18301 14.4471 4.24104 14.4237 4.29293C14.6095 4.33366 14.7434 4.49602 14.7434 4.68796C14.7429 4.78972 14.7034 4.88742 14.6329 4.9608C14.7109 4.98853 14.7785 5.03971 14.8264 5.10733C14.8742 5.17495 14.9 5.2557 14.9001 5.33854C14.9001 5.4027 14.8829 5.46073 14.8594 5.51262C15.0279 5.64039 15.0625 5.87251 14.9292 6.06444C15.115 6.25024 14.9526 6.54652 14.7958 6.66871C14.6446 6.78477 14.4298 6.85451 14.2206 6.73288C14.0582 6.84335 13.8545 6.88966 13.657 6.84893C13.6805 7.0113 13.5292 7.15079 13.3669 7.12791C13.4132 7.20323 13.3669 7.31371 13.2681 7.32543L13.3323 7.57539L13.0712 7.71488C13.1058 7.75561 13.1119 7.81364 13.0885 7.86609C13.0539 7.93583 12.9724 7.97656 12.8965 7.94141C11.7231 7.40689 10.4164 7.11061 9.0282 7.11061C7.69594 7.10737 6.37857 7.39071 5.16545 7.94141C5.09013 7.97601 5.00867 7.93583 4.97352 7.86609C4.9791 7.80192 4.98523 7.7439 5.01983 7.70372L5.01648 7.70261ZM5.1967 7.35388L5.11524 7.66188L5.13867 7.71432C5.12696 7.7199 5.10966 7.72604 5.09236 7.73776C5.06893 7.75505 5.05163 7.77849 5.06893 7.81922C5.08622 7.85381 5.12138 7.86553 5.15039 7.85381C6.33549 7.31371 7.65395 7.01744 9.04773 7.01744C10.4476 7.01744 11.76 7.31371 12.9451 7.85381C13.0031 7.88283 13.1074 7.77849 12.9624 7.71432L12.9858 7.66188L12.9043 7.35388L13.1833 7.25512L13.2067 7.21439C13.2302 7.22611 13.2475 7.22611 13.2648 7.23169C13.3401 7.23727 13.3345 7.15637 13.2994 7.13851C11.9657 6.53396 10.5176 6.22322 9.05331 6.22737C7.53175 6.22737 6.09669 6.55266 4.80724 7.13907C4.77265 7.15637 4.76651 7.23783 4.84184 7.23225C4.85913 7.23225 4.87643 7.22667 4.89987 7.21495L4.91716 7.25568L5.1967 7.35388ZM11.5742 3.76454C11.2433 2.95718 10.4649 2.38192 9.43104 2.43437C9.43104 2.50411 9.40761 2.56772 9.37302 2.62631V2.89915C9.40761 2.95718 9.43104 3.02134 9.43104 3.09109C9.43104 3.16083 9.40761 3.23057 9.37302 3.28302V3.45711C10.0816 3.36393 10.918 3.43367 11.5742 3.7651V3.76454ZM9.36688 3.56144C9.41619 3.63534 9.43523 3.72535 9.42007 3.81289C9.40491 3.90042 9.3567 3.97879 9.28542 4.0318C9.41319 4.07253 9.51195 4.16515 9.54654 4.32808C9.80209 4.38611 9.87183 4.57191 9.87183 4.76942C9.87183 5.00767 9.77307 5.21077 9.41319 5.22806C9.45392 5.36142 9.58169 5.45459 9.7329 5.45459C9.8017 5.45515 9.86895 5.43414 9.92519 5.39451C9.98144 5.35488 10.0238 5.29862 10.0465 5.23364C10.0348 5.19905 10.0348 5.1639 10.0348 5.12931C10.0348 4.90277 10.2267 4.72255 10.4588 4.72255C10.6909 4.72255 10.8828 4.90277 10.8828 5.12931C10.8828 5.19905 10.8656 5.26266 10.8304 5.32124C10.836 5.46073 10.9347 5.57679 11.0804 5.61752C11.2254 5.65211 11.3705 5.59408 11.4464 5.47245C11.1038 5.36811 11.0575 5.14716 11.1211 4.91505C11.1735 4.72311 11.2896 4.56075 11.5451 4.56633C11.5915 4.47315 11.6556 4.41512 11.7309 4.38053C11.7075 4.18859 11.6668 4.00893 11.5976 3.83429C10.9236 3.4744 10.047 3.41024 9.36744 3.509L9.36688 3.56144ZM8.76261 2.43437C8.76261 2.49853 8.78604 2.55042 8.82064 2.60287V2.92258C8.78604 2.97503 8.76261 3.02692 8.76261 3.09109C8.76261 3.15525 8.78604 3.20714 8.82064 3.25959V3.58488C8.78604 3.63733 8.76261 3.68922 8.76261 3.75338C8.76261 3.94532 8.90768 3.99721 9.05275 4.06137C9.19782 3.99721 9.34289 3.93918 9.34289 3.75338C9.34289 3.69535 9.32559 3.63733 9.29044 3.5966L9.28486 3.26573C9.31945 3.21328 9.34289 3.16139 9.34289 3.09722C9.34289 3.03306 9.31945 2.98117 9.28486 2.92872V2.60343C9.31945 2.55098 9.34289 2.49909 9.34289 2.43493C9.34289 2.41149 9.33731 2.38862 9.33731 2.3596C10.7021 2.26084 11.6841 3.16139 11.8174 4.42739C11.6952 4.4737 11.6489 4.52615 11.5965 4.64221C11.3582 4.63049 11.2539 4.72367 11.1959 4.93235C11.1144 5.22862 11.2656 5.34468 11.5619 5.42C11.4748 5.61194 11.2946 5.74529 11.0625 5.68726C10.9746 5.6671 10.8962 5.61759 10.8402 5.5469C10.7842 5.4762 10.754 5.38854 10.7545 5.29837C10.7891 5.24694 10.8074 5.18627 10.807 5.12428C10.8054 5.035 10.7684 4.95 10.7041 4.88797C10.6399 4.82593 10.5537 4.79192 10.4644 4.79341C10.3751 4.79192 10.2889 4.82593 10.2246 4.88797C10.1604 4.95 10.1234 5.035 10.1218 5.12428C10.1219 5.15977 10.1277 5.195 10.1391 5.22862C10.1137 5.3149 10.0608 5.39052 9.98851 5.444C9.9162 5.49748 9.82841 5.52588 9.73848 5.5249C9.50023 5.5249 9.36074 5.35639 9.32615 5.14716C9.628 5.14716 9.80264 5.07184 9.80264 4.76384C9.80264 4.54289 9.72118 4.43297 9.48907 4.38611C9.43662 4.11326 9.29155 4.09597 9.05944 4.06082C8.82119 4.10155 8.68171 4.11326 8.62982 4.38611C8.39771 4.43242 8.31624 4.54289 8.31624 4.76384C8.31624 5.07184 8.49033 5.14716 8.79274 5.14716C8.75815 5.35639 8.61866 5.5249 8.38041 5.5249C8.29069 5.52498 8.20333 5.49623 8.1312 5.44288C8.05907 5.38954 8.00599 5.31443 7.97979 5.22862C7.99115 5.195 7.99699 5.15977 7.99709 5.12428C7.99548 5.035 7.95849 4.95 7.89426 4.88797C7.83002 4.82593 7.74379 4.79192 7.6545 4.79341C7.46257 4.79341 7.31192 4.93848 7.31192 5.12428C7.31142 5.18628 7.3297 5.24697 7.36437 5.29837C7.35879 5.48417 7.24217 5.64095 7.05637 5.68726C6.82426 5.74529 6.64404 5.61194 6.557 5.42C6.85328 5.34468 6.99835 5.22806 6.92302 4.93235C6.86499 4.72311 6.76066 4.63049 6.52241 4.64221C6.46438 4.52615 6.42365 4.4737 6.30146 4.42739C6.43481 3.16139 7.41068 2.26084 8.78158 2.3596C8.77099 2.38335 8.76512 2.40894 8.76428 2.43493L8.76261 2.43437ZM6.50344 3.84042C6.43927 4.01451 6.39296 4.19473 6.37567 4.38666C6.45099 4.42126 6.51515 4.47984 6.56147 4.57246C6.82259 4.56688 6.9392 4.72925 6.99109 4.92119C7.05526 5.1533 7.00839 5.37425 6.6658 5.47859C6.74113 5.59464 6.88675 5.65881 7.03182 5.62366C7.17689 5.5885 7.27565 5.46687 7.28179 5.32738C7.24692 5.26947 7.22876 5.20304 7.22934 5.13544C7.22934 4.90891 7.42128 4.72869 7.65339 4.72869C7.8855 4.72869 8.07744 4.90891 8.07744 5.13544C8.07744 5.17004 8.07186 5.20519 8.06572 5.23978C8.08905 5.3043 8.13164 5.3601 8.18772 5.39962C8.24381 5.43914 8.31068 5.46047 8.37929 5.46073C8.5305 5.46073 8.65213 5.36755 8.699 5.2342C8.33912 5.2169 8.24036 5.01325 8.24036 4.77556C8.24036 4.57246 8.31011 4.39224 8.56565 4.33422C8.57998 4.26652 8.61154 4.20368 8.65729 4.15178C8.70304 4.09987 8.76142 4.06066 8.82677 4.03794C8.78429 4.00469 8.74974 3.96241 8.72561 3.91416C8.70149 3.86591 8.6884 3.8129 8.68729 3.75896C8.68729 3.68922 8.71072 3.61947 8.74531 3.56702V3.509C8.054 3.41582 7.17689 3.47998 6.50344 3.83986V3.84042ZM8.68171 2.43493C7.64223 2.3769 6.86946 2.95773 6.53245 3.7651C7.18303 3.43981 8.02499 3.35835 8.7336 3.45711V3.28246C8.699 3.22444 8.67557 3.16027 8.67557 3.09053C8.67557 3.02078 8.699 2.95104 8.7336 2.89859V2.62575C8.7006 2.56705 8.68259 2.50113 8.68115 2.43381L8.68171 2.43493ZM12.9099 6.12917L12.9333 6.11187C12.9797 6.14646 13.0204 6.1699 13.0784 6.18719C13.1018 6.19277 13.1309 6.19277 13.1537 6.19891C13.1828 6.34398 13.2352 6.46003 13.3395 6.56493L13.2932 6.6291C13.0433 6.52287 12.7894 6.42609 12.5322 6.33896L12.5439 6.26363C12.6717 6.25192 12.805 6.20561 12.9099 6.13028V6.12917ZM12.9333 6.20449C12.8636 6.2508 12.7821 6.28595 12.7012 6.30883C12.8633 6.36725 13.024 6.4292 13.1833 6.49463C13.1374 6.42549 13.1039 6.34881 13.0846 6.2681L13.0611 6.26252C13.0148 6.2508 12.9741 6.22792 12.9333 6.20449ZM9.01258 5.22304H9.09404C9.12305 5.43228 9.26254 5.61194 9.45392 5.69954L9.43662 5.77486C9.30885 5.76928 9.18108 5.76928 9.05331 5.76928C8.92553 5.76928 8.79776 5.76928 8.66999 5.77486L8.65269 5.69954C8.84463 5.60636 8.98356 5.43228 9.01258 5.22304ZM9.05331 5.37983C9.007 5.50202 8.92553 5.60636 8.81506 5.68782C8.89652 5.68782 8.97184 5.68224 9.05331 5.68224C9.13276 5.6812 9.21223 5.68306 9.29155 5.68782C9.18549 5.60862 9.1031 5.50192 9.05331 5.37927V5.37983ZM4.81896 6.62296L4.77265 6.55879C4.87699 6.44832 4.92944 6.33784 4.95845 6.19277C5.03699 6.18962 5.11238 6.16103 5.17326 6.11131C5.29546 6.19835 5.41709 6.2508 5.5683 6.25638L5.58002 6.3317C5.32278 6.41884 5.06892 6.51562 4.81896 6.62184V6.62296ZM4.92944 6.49519C5.08876 6.42976 5.24949 6.36781 5.41151 6.30939C5.33005 6.28595 5.24915 6.25136 5.1794 6.20505C5.14481 6.22848 5.09794 6.24578 5.05721 6.2575L5.03378 6.26308C5.00476 6.34454 4.97575 6.42544 4.92944 6.49519ZM6.81701 5.91993V5.99526C6.57089 6.04641 6.32671 6.10653 6.08497 6.17548L6.05038 6.10573C6.20716 5.97238 6.30034 5.76873 6.27133 5.55949L6.34665 5.54219C6.42811 5.73971 6.60778 5.8792 6.81701 5.91993ZM6.65464 5.94895C6.53428 5.89838 6.42994 5.81602 6.35279 5.7107C6.33549 5.83847 6.28862 5.96066 6.20772 6.05942C6.35279 6.01869 6.50399 5.9841 6.6552 5.94895H6.65464ZM7.33424 5.8965L7.30522 5.82675C7.45029 5.73357 7.54347 5.61194 7.6015 5.45515H7.64781C7.69412 5.45515 7.72927 5.44344 7.77558 5.43172C7.87434 5.57121 7.9904 5.66997 8.1589 5.71628L8.15332 5.7916C7.87951 5.81993 7.6064 5.85472 7.33424 5.89594V5.8965ZM7.65953 5.53661C7.6188 5.63537 7.55519 5.72241 7.47373 5.79774L7.9904 5.73357C7.89417 5.68342 7.81075 5.61183 7.74657 5.52434C7.71755 5.52992 7.68854 5.53606 7.65953 5.53606V5.53661ZM9.95385 5.79774L9.94827 5.72241C10.1043 5.67314 10.2393 5.57294 10.3316 5.43786C10.3779 5.44957 10.413 5.46129 10.4594 5.46129H10.5057C10.5637 5.61808 10.6569 5.74027 10.8019 5.83289L10.7729 5.90264C10.5057 5.85632 10.2328 5.82117 9.95385 5.7983V5.79774ZM10.4476 5.53661C10.4201 5.536 10.3928 5.53206 10.3662 5.5249C10.302 5.61194 10.215 5.68168 10.1162 5.73413C10.2903 5.75143 10.4649 5.76872 10.6329 5.7983C10.5584 5.72875 10.4973 5.6461 10.4527 5.55447L10.4476 5.53661ZM12.0624 6.10573L12.0278 6.17548C11.7895 6.10573 11.5457 6.0477 11.2957 5.99526V5.91993C11.4988 5.8792 11.6791 5.73971 11.7605 5.54833L11.8358 5.56563C11.8246 5.66749 11.8394 5.77054 11.8791 5.86505C11.9187 5.95956 11.9818 6.0424 12.0624 6.10573ZM11.9056 6.05942C11.8241 5.96066 11.7722 5.83847 11.7605 5.7107C11.6852 5.81504 11.5747 5.8965 11.4587 5.94895L11.9061 6.05942H11.9056ZM12.0216 4.72925C11.8414 4.68294 11.6556 4.78728 11.6093 4.96136C11.563 5.13544 11.6735 5.31566 11.8531 5.35639C12.0334 5.4027 12.2192 5.29837 12.2655 5.12428C12.3118 4.9502 12.2013 4.76998 12.0216 4.72925ZM12.0334 4.6768C12.2426 4.72925 12.3704 4.93235 12.3179 5.13544C12.2655 5.33854 12.0507 5.46073 11.8414 5.40828C11.7924 5.39719 11.7461 5.37647 11.7052 5.34733C11.6643 5.31818 11.6296 5.2812 11.6032 5.23852C11.5767 5.19584 11.5589 5.14832 11.551 5.09873C11.5431 5.04914 11.545 4.99846 11.5569 4.94964C11.6093 4.74655 11.8241 4.62435 12.0334 4.6768ZM12.3296 4.09039C12.2253 4.09039 12.1438 4.17185 12.1438 4.27061C12.1438 4.36937 12.2309 4.45083 12.3296 4.45083C12.434 4.45083 12.5154 4.36937 12.5154 4.27061C12.5157 4.2464 12.511 4.22239 12.5017 4.20004C12.4924 4.1777 12.4786 4.15748 12.4612 4.14063C12.4438 4.12377 12.4232 4.11062 12.4006 4.10198C12.378 4.09335 12.3538 4.0894 12.3296 4.09039ZM12.3296 4.03794C12.463 4.03794 12.5735 4.14228 12.5735 4.27005C12.5735 4.39782 12.463 4.50216 12.3296 4.50216C12.1963 4.50216 12.0858 4.39782 12.0858 4.27005C12.0858 4.14228 12.1963 4.03794 12.3296 4.03794ZM12.1728 3.43981C12.0685 3.43981 11.987 3.52127 11.987 3.62003C11.987 3.71879 12.0741 3.80025 12.1728 3.80025C12.2772 3.80025 12.3586 3.71879 12.3586 3.62003C12.3586 3.52127 12.2772 3.43981 12.1728 3.43981ZM12.1728 3.38736C12.3062 3.38736 12.4167 3.4917 12.4167 3.61947C12.4167 3.74724 12.3062 3.85158 12.1728 3.85158C12.0395 3.85158 11.929 3.74724 11.929 3.61947C11.929 3.4917 12.0395 3.38736 12.1728 3.38736ZM14.4962 5.14716C14.3918 5.14716 14.3104 5.22862 14.3104 5.32738C14.3104 5.42614 14.3918 5.5076 14.4962 5.5076C14.6005 5.5076 14.682 5.42614 14.682 5.32738C14.682 5.22862 14.6005 5.14716 14.4962 5.14716ZM14.4962 5.09471C14.6295 5.09471 14.74 5.19905 14.74 5.32682C14.74 5.45459 14.6295 5.55893 14.4962 5.55893C14.3628 5.55893 14.2524 5.45459 14.2524 5.32682C14.2524 5.19905 14.3628 5.09471 14.4962 5.09471ZM14.3394 4.50216C14.2351 4.50216 14.1536 4.58362 14.1536 4.68238C14.1536 4.78114 14.2351 4.8626 14.3394 4.8626C14.4437 4.8626 14.5252 4.78114 14.5252 4.68238C14.5252 4.58362 14.4437 4.50216 14.3394 4.50216ZM14.3394 4.44971C14.4728 4.44971 14.5832 4.55405 14.5832 4.68182C14.5832 4.8096 14.4728 4.91393 14.3394 4.91393C14.206 4.91393 14.0956 4.8096 14.0956 4.68182C14.1012 4.55405 14.206 4.44971 14.3394 4.44971ZM14.0604 3.93304C13.9561 3.93304 13.8746 4.01451 13.8746 4.11326C13.8746 4.21202 13.9617 4.29348 14.0604 4.29348C14.1648 4.29348 14.2462 4.21202 14.2462 4.11326C14.2462 4.01451 14.1648 3.93304 14.0604 3.93304ZM14.0604 3.8806C14.1938 3.8806 14.3042 3.98493 14.3042 4.11271C14.3042 4.24048 14.1938 4.34482 14.0604 4.34482C13.9271 4.34482 13.8166 4.24048 13.8166 4.11271C13.8166 3.98493 13.9271 3.8806 14.0604 3.8806ZM13.6129 3.42753C13.5086 3.42753 13.4271 3.509 13.4271 3.60775C13.4271 3.70651 13.5086 3.78797 13.6129 3.78797C13.7173 3.78797 13.7987 3.70651 13.7987 3.60775C13.7987 3.509 13.7173 3.42753 13.6129 3.42753ZM13.6129 3.37509C13.7463 3.37509 13.8568 3.47942 13.8568 3.6072C13.8568 3.73497 13.7524 3.84042 13.6129 3.84042C13.4796 3.84042 13.3691 3.73608 13.3691 3.60831C13.3747 3.48054 13.4796 3.3762 13.6129 3.3762V3.37509ZM13.0667 3.04422C12.9624 3.04422 12.8809 3.12568 12.8809 3.22444C12.8809 3.3232 12.9624 3.40466 13.0667 3.40466C13.171 3.40466 13.2525 3.3232 13.2525 3.22444C13.2525 3.12568 13.171 3.04422 13.0667 3.04422ZM13.0667 2.99177C13.2001 2.99177 13.3105 3.09611 13.3105 3.22388C13.3105 3.35165 13.2001 3.45599 13.0667 3.45599C12.9333 3.45599 12.8229 3.35165 12.8229 3.22388C12.8229 3.09611 12.9333 2.99177 13.0667 2.99177ZM12.4741 2.81769C12.3698 2.81769 12.2883 2.89915 12.2883 2.99791C12.2883 3.09666 12.3698 3.17813 12.4741 3.17813C12.5785 3.17813 12.6599 3.09666 12.6599 2.99791C12.6655 2.89915 12.5785 2.81769 12.4741 2.81769ZM12.4741 2.76524C12.6075 2.76524 12.718 2.86958 12.718 2.99735C12.718 3.12512 12.6075 3.22946 12.4741 3.22946C12.3408 3.22946 12.2303 3.12512 12.2303 2.99735C12.2359 2.86958 12.3408 2.76524 12.4741 2.76524ZM11.876 2.86958C11.7717 2.86958 11.6902 2.95104 11.6902 3.0498C11.6902 3.14855 11.7717 3.23002 11.876 3.23002C11.9804 3.23002 12.0618 3.14855 12.0618 3.0498C12.0618 2.95104 11.9804 2.86958 11.876 2.86958ZM11.876 2.81713C12.0094 2.81713 12.1198 2.92147 12.1198 3.04924C12.1198 3.17701 12.0099 3.28246 11.876 3.28246C11.7421 3.28246 11.6322 3.17813 11.6322 3.05035C11.6322 2.92258 11.7427 2.81824 11.876 2.81824V2.81713ZM11.4347 2.37578C11.3303 2.37578 11.2489 2.45724 11.2489 2.556C11.2489 2.65476 11.3303 2.73622 11.4347 2.73622C11.539 2.73622 11.6205 2.65476 11.6205 2.556C11.626 2.45724 11.539 2.37578 11.4347 2.37578ZM11.4347 2.32947C11.568 2.32947 11.6785 2.43381 11.6785 2.56158C11.6785 2.68936 11.568 2.79369 11.4347 2.79369C11.3013 2.79369 11.1908 2.68936 11.1908 2.56158C11.1964 2.43381 11.3013 2.32947 11.4347 2.32947ZM10.8594 2.00976C10.7551 2.00976 10.6736 2.09122 10.6736 2.18998C10.6736 2.28874 10.7551 2.3702 10.8594 2.3702C10.9638 2.3702 11.0452 2.28874 11.0452 2.18998C11.0452 2.09122 10.9638 2.00976 10.8594 2.00976ZM10.8594 1.95731C10.9928 1.95731 11.1032 2.06165 11.1032 2.18943C11.1032 2.3172 10.9928 2.42154 10.8594 2.42154C10.7261 2.42154 10.6156 2.3172 10.6156 2.18943C10.6212 2.06165 10.7261 1.95731 10.8594 1.95731ZM10.2613 1.79495C10.1569 1.79495 10.0755 1.87641 10.0755 1.97517C10.0755 2.07393 10.1569 2.15539 10.2613 2.15539C10.3656 2.15539 10.4471 2.07393 10.4471 1.97517C10.4527 1.87641 10.3656 1.79495 10.2613 1.79495ZM10.2613 1.7425C10.3946 1.7425 10.5051 1.84684 10.5051 1.97461C10.5051 2.10238 10.3946 2.20672 10.2613 2.20672C10.1279 2.20672 10.0175 2.10238 10.0175 1.97461C10.023 1.84684 10.1279 1.7425 10.2613 1.7425ZM9.65144 1.69005C9.5471 1.69005 9.46564 1.77151 9.46564 1.87027C9.46564 1.96903 9.5471 2.05049 9.65144 2.05049C9.75578 2.05049 9.83724 1.96903 9.83724 1.87027C9.83724 1.77151 9.75578 1.69005 9.65144 1.69005ZM9.65144 1.6376C9.78479 1.6376 9.89526 1.74194 9.89526 1.86972C9.89526 1.99749 9.78479 2.10183 9.65144 2.10183C9.62052 2.10234 9.58981 2.09674 9.56107 2.08533C9.53234 2.07392 9.50614 2.05694 9.48399 2.03537C9.46185 2.01379 9.44419 1.98805 9.43204 1.95962C9.41988 1.93119 9.41348 1.90063 9.41319 1.86972C9.40761 1.74194 9.51753 1.6376 9.65144 1.6376ZM3.84923 6.45836C4.0116 6.37132 4.07018 6.1738 3.98258 6.01702C3.93742 5.94063 3.86445 5.88467 3.77897 5.86086C3.69348 5.83704 3.6021 5.84721 3.52394 5.88924C3.36158 5.97629 3.30299 6.1738 3.39059 6.33059C3.47819 6.48737 3.68686 6.5454 3.84923 6.45836ZM3.87267 6.50467C3.68073 6.60343 3.44862 6.53926 3.34428 6.35346C3.31957 6.30994 3.30402 6.26183 3.29856 6.21207C3.2931 6.16232 3.29785 6.11198 3.31253 6.06413C3.32721 6.01628 3.3515 5.97194 3.38392 5.9338C3.41634 5.89567 3.4562 5.86456 3.50106 5.84238C3.693 5.74362 3.93069 5.80778 4.02945 5.99358C4.05407 6.03713 4.06957 6.08524 4.07498 6.13497C4.0804 6.1847 4.07563 6.23501 4.06096 6.28284C4.04628 6.33067 4.02202 6.375 3.98965 6.41314C3.95728 6.45128 3.91747 6.48242 3.87267 6.50467ZM6.25403 5.35472C6.43425 5.30841 6.54417 5.13377 6.49786 4.95969C6.45155 4.7856 6.26575 4.68071 6.08553 4.72758C5.90531 4.77444 5.79539 4.94853 5.8417 5.12261C5.8669 5.20722 5.924 5.27873 6.00093 5.32204C6.07787 5.36535 6.16862 5.37706 6.25403 5.35472ZM6.27133 5.40717C6.17199 5.43324 6.06639 5.41925 5.97727 5.36822C5.88814 5.31719 5.82263 5.23319 5.79483 5.13433C5.78229 5.08549 5.77977 5.03461 5.78741 4.98477C5.79504 4.93493 5.81268 4.88715 5.83927 4.8443C5.86585 4.80145 5.90083 4.76443 5.94209 4.73545C5.98336 4.70647 6.03006 4.68614 6.07939 4.67569C6.28862 4.62324 6.50344 4.74543 6.55589 4.94853C6.60833 5.15162 6.48056 5.35528 6.27133 5.40717ZM9.05331 5.01381C9.23911 5.01381 9.39031 4.86874 9.39031 4.68852C9.38959 4.64502 9.38029 4.60209 9.36295 4.56219C9.34561 4.52228 9.32058 4.48619 9.28927 4.45598C9.25797 4.42576 9.22102 4.40202 9.18053 4.3861C9.14004 4.37019 9.0968 4.36242 9.05331 4.36323C9.00981 4.36242 8.96658 4.37019 8.92608 4.3861C8.88559 4.40202 8.84864 4.42576 8.81734 4.45598C8.78603 4.48619 8.761 4.52228 8.74366 4.56219C8.72632 4.60209 8.71702 4.64502 8.7163 4.68852C8.7163 4.86874 8.86751 5.01381 9.05331 5.01381ZM9.05331 5.06626C9.00297 5.06699 8.95297 5.05781 8.90619 5.03922C8.8594 5.02064 8.81673 4.99302 8.78061 4.95794C8.7445 4.92287 8.71565 4.88102 8.69571 4.83479C8.67577 4.78856 8.66514 4.73886 8.66441 4.68852C8.66441 4.47928 8.83849 4.31078 9.05331 4.31078C9.26812 4.31078 9.4422 4.47928 9.4422 4.68852C9.44778 4.89775 9.26812 5.06626 9.05331 5.06626ZM5.78311 4.45083C5.88745 4.45083 5.96891 4.36937 5.96891 4.27061C5.96891 4.17185 5.88745 4.09039 5.78311 4.09039C5.67878 4.09039 5.59731 4.17185 5.59731 4.27061C5.59173 4.36937 5.67878 4.45083 5.78311 4.45083ZM5.78311 4.50328C5.7522 4.50379 5.72149 4.49819 5.69275 4.48678C5.66401 4.47538 5.63781 4.4584 5.61567 4.43682C5.59352 4.41524 5.57586 4.3895 5.56371 4.36107C5.55156 4.33264 5.54516 4.30208 5.54487 4.27117C5.54487 4.14339 5.65534 4.03906 5.78311 4.03906C5.91647 4.03906 6.02694 4.14339 6.02694 4.27117C6.02136 4.39894 5.91647 4.50328 5.78311 4.50328ZM5.9399 3.80025C6.04424 3.80025 6.1257 3.71879 6.1257 3.62003C6.1257 3.52127 6.04424 3.43981 5.9399 3.43981C5.83556 3.43981 5.7541 3.52127 5.7541 3.62003C5.74852 3.71879 5.83556 3.80025 5.9399 3.80025ZM5.9399 3.8527C5.80655 3.8527 5.69607 3.74836 5.69607 3.62059C5.69607 3.49281 5.80655 3.38848 5.9399 3.38848C6.07325 3.38848 6.18373 3.49281 6.18373 3.62059C6.17815 3.74836 6.06767 3.8527 5.9399 3.8527ZM3.61098 5.51318C3.71532 5.51318 3.79678 5.43172 3.79678 5.33296C3.79678 5.2342 3.71532 5.15274 3.61098 5.15274C3.50664 5.15274 3.42518 5.2342 3.42518 5.33296C3.42518 5.43172 3.50664 5.51318 3.61098 5.51318ZM3.61098 5.56563C3.47763 5.56563 3.36716 5.46129 3.36716 5.33352C3.36716 5.20575 3.47763 5.10141 3.61098 5.10141C3.6419 5.10089 3.67261 5.1065 3.70135 5.1179C3.73008 5.12931 3.75628 5.14629 3.77843 5.16786C3.80057 5.18944 3.81823 5.21518 3.83038 5.24362C3.84254 5.27205 3.84894 5.3026 3.84923 5.33352C3.85481 5.46129 3.74489 5.56563 3.61098 5.56563ZM3.76777 4.8626C3.87211 4.8626 3.95357 4.78114 3.95357 4.68238C3.95212 4.63408 3.9319 4.58824 3.89722 4.55459C3.86253 4.52095 3.81609 4.50214 3.76777 4.50216C3.66343 4.50216 3.58197 4.58362 3.58197 4.68238C3.58197 4.78114 3.66343 4.8626 3.76777 4.8626ZM3.76777 4.91505C3.63442 4.91505 3.52394 4.81071 3.52394 4.68294C3.52394 4.55517 3.63442 4.45083 3.76777 4.45083C3.90112 4.45083 4.0116 4.55517 4.0116 4.68294C4.0116 4.81071 3.90112 4.91505 3.76777 4.91505ZM4.04675 4.29348C4.15109 4.29348 4.23255 4.21202 4.23255 4.11326C4.23255 4.01451 4.15109 3.93304 4.04675 3.93304C3.94241 3.93304 3.86095 4.01451 3.86095 4.11326C3.86095 4.21202 3.94799 4.29348 4.04675 4.29348ZM4.04675 4.34593C3.9134 4.34593 3.80292 4.24159 3.80292 4.11382C3.80292 3.98605 3.9134 3.88171 4.04675 3.88171C4.1801 3.88171 4.29058 3.98605 4.29058 4.11382C4.29058 4.24159 4.1801 4.34593 4.04675 4.34593ZM4.49423 3.78853C4.59857 3.78853 4.68003 3.70707 4.68003 3.60831C4.68003 3.50955 4.59857 3.42809 4.49423 3.42809C4.38989 3.42809 4.30843 3.50955 4.30843 3.60831C4.30843 3.70707 4.38989 3.78853 4.49423 3.78853ZM4.49423 3.84098C4.36088 3.84098 4.2504 3.73664 4.2504 3.60887C4.2504 3.4811 4.36088 3.37676 4.49423 3.37676C4.62758 3.37676 4.73806 3.4811 4.73806 3.60887C4.73806 3.73664 4.62758 3.84042 4.49367 3.84042L4.49423 3.84098ZM5.04047 3.40522C5.14481 3.40522 5.22627 3.32375 5.22627 3.22499C5.22627 3.12624 5.14481 3.04477 5.04047 3.04477C4.93613 3.04477 4.85467 3.12624 4.85467 3.22499C4.85467 3.32375 4.94171 3.40522 5.04047 3.40522ZM5.04047 3.45766C4.90712 3.45766 4.79664 3.35333 4.79664 3.22555C4.79664 3.09778 4.90712 2.99344 5.04047 2.99344C5.17382 2.99344 5.2843 3.09778 5.2843 3.22555C5.2843 3.35333 5.17382 3.45766 5.04047 3.45766ZM5.63302 3.18482C5.73736 3.18482 5.81882 3.10336 5.81882 3.0046C5.81882 2.90584 5.73736 2.82438 5.63302 2.82438C5.52868 2.82438 5.44722 2.90584 5.44722 3.0046C5.44722 3.10336 5.52868 3.18482 5.63302 3.18482ZM5.63302 3.23727C5.49967 3.23727 5.38919 3.13293 5.38919 3.00516C5.38919 2.87739 5.49967 2.77305 5.63302 2.77305C5.76637 2.77305 5.87685 2.87739 5.87685 3.00516C5.87127 3.13293 5.76637 3.23727 5.63302 3.23727ZM6.23115 3.23169C6.33549 3.23169 6.41695 3.15023 6.41695 3.05147C6.41695 2.95271 6.33549 2.87125 6.23115 2.87125C6.12682 2.87125 6.04535 2.95271 6.04535 3.05147C6.04535 3.15023 6.12682 3.23169 6.23115 3.23169ZM6.23115 3.28414C6.0978 3.28414 5.98733 3.1798 5.98733 3.05203C5.98733 2.92426 6.0978 2.81992 6.23115 2.81992C6.36451 2.81992 6.47498 2.92426 6.47498 3.05203C6.47498 3.1798 6.36395 3.28246 6.2306 3.28246L6.23115 3.28414ZM6.6725 2.74404C6.77684 2.74404 6.8583 2.66257 6.8583 2.56381C6.8583 2.46506 6.77684 2.38359 6.6725 2.38359C6.56816 2.38359 6.4867 2.46506 6.4867 2.56381C6.4867 2.66257 6.56816 2.74404 6.6725 2.74404ZM6.6725 2.79648C6.53915 2.79648 6.42867 2.69215 6.42867 2.56437C6.42867 2.4366 6.53915 2.33226 6.6725 2.33226C6.80585 2.33226 6.91633 2.4366 6.91633 2.56437C6.91633 2.69215 6.80585 2.79648 6.6725 2.79648ZM7.24775 2.37244C7.35209 2.37244 7.43355 2.29097 7.43355 2.19221C7.43355 2.09346 7.35209 2.01199 7.24775 2.01199C7.14341 2.01199 7.06195 2.09346 7.06195 2.19221C7.06195 2.29097 7.14341 2.37244 7.24775 2.37244ZM7.24775 2.42488C7.1144 2.42488 7.00393 2.32055 7.00393 2.19277C7.00393 2.065 7.1144 1.96066 7.24775 1.96066C7.38111 1.96066 7.49158 2.065 7.49158 2.19277C7.49158 2.32055 7.38111 2.42488 7.24775 2.42488ZM7.84588 2.15762C7.95022 2.15762 8.03168 2.07616 8.03168 1.9774C8.03168 1.87864 7.95022 1.79718 7.84588 1.79718C7.74155 1.79718 7.66008 1.87864 7.66008 1.9774C7.66008 2.07616 7.74155 2.15762 7.84588 2.15762ZM7.84588 2.21007C7.71253 2.21007 7.60206 2.10573 7.60206 1.97796C7.60206 1.85019 7.71253 1.74585 7.84588 1.74585C7.97924 1.74585 8.08971 1.85019 8.08971 1.97796C8.08971 2.10573 7.97924 2.21007 7.84588 2.21007ZM9.05331 3.93304C9.15764 3.93304 9.23911 3.85158 9.23911 3.75282C9.23911 3.65406 9.15764 3.5726 9.05331 3.5726C8.94897 3.5726 8.86751 3.65406 8.86751 3.75282C8.86751 3.85158 8.94897 3.93304 9.05331 3.93304ZM9.05331 3.98549C8.91995 3.98549 8.80948 3.88115 8.80948 3.75338C8.80948 3.62561 8.91995 3.52127 9.05331 3.52127C9.18666 3.52127 9.29713 3.62561 9.29713 3.75338C9.29713 3.88115 9.18666 3.98549 9.05331 3.98549ZM9.05331 3.27689C9.15764 3.27689 9.23911 3.19542 9.23911 3.09666C9.23911 2.99791 9.15764 2.91644 9.05331 2.91644C8.94897 2.91644 8.86751 2.99791 8.86751 3.09666C8.86751 3.19542 8.94897 3.27689 9.05331 3.27689ZM9.05331 3.32933C8.91995 3.32933 8.80948 3.225 8.80948 3.09722C8.80948 2.96945 8.91995 2.86511 9.05331 2.86511C9.18666 2.86511 9.29713 2.96945 9.29713 3.09722C9.29713 3.225 9.18666 3.32933 9.05331 3.32933ZM9.05331 2.62073C9.15764 2.62073 9.23911 2.53926 9.23911 2.44051C9.23911 2.34175 9.15764 2.26029 9.05331 2.26029C8.94897 2.26029 8.86751 2.34175 8.86751 2.44051C8.86751 2.53926 8.94897 2.62073 9.05331 2.62073ZM9.05331 2.66704C8.91995 2.66704 8.80948 2.5627 8.80948 2.43493C8.80948 2.30715 8.91995 2.20282 9.05331 2.20282C9.18666 2.20282 9.29713 2.30715 9.29713 2.43493C9.29713 2.56828 9.18666 2.66704 9.05331 2.66704ZM8.46075 2.05161C8.56509 2.05161 8.64655 1.97015 8.64655 1.87139C8.6451 1.82309 8.62489 1.77725 8.5902 1.7436C8.55551 1.70995 8.50908 1.69115 8.46075 1.69117C8.35642 1.69117 8.26882 1.77263 8.26882 1.87139C8.26882 1.97573 8.35586 2.05161 8.46075 2.05161ZM8.46075 2.10964C8.3274 2.10964 8.21693 2.0053 8.21693 1.87753C8.21693 1.74975 8.3274 1.64542 8.46075 1.64542C8.59411 1.64542 8.70458 1.74975 8.70458 1.87753C8.699 2.0053 8.59411 2.10964 8.46075 2.10964ZM14.5827 5.89036C14.5044 5.84875 14.4132 5.83881 14.3278 5.86259C14.2424 5.88637 14.1695 5.94206 14.124 6.01813C14.037 6.17492 14.095 6.37244 14.2574 6.45948C14.3357 6.50095 14.4268 6.51081 14.5122 6.48704C14.5975 6.46327 14.6705 6.40767 14.716 6.3317C14.7382 6.29443 14.7523 6.25294 14.7576 6.2099C14.7629 6.16685 14.7591 6.12318 14.7465 6.08166C14.734 6.04015 14.713 6.0017 14.6847 5.96877C14.6565 5.93583 14.6218 5.90913 14.5827 5.89036ZM14.6117 5.84405C14.8036 5.94281 14.8672 6.17492 14.7629 6.35514C14.7106 6.44455 14.6258 6.51024 14.5261 6.53843C14.4264 6.56662 14.3197 6.55512 14.2284 6.50635C14.1838 6.48384 14.1443 6.45246 14.1123 6.41413C14.0803 6.3758 14.0565 6.33133 14.0424 6.28346C14.0282 6.23559 14.024 6.18532 14.03 6.13576C14.036 6.0862 14.052 6.03838 14.0772 5.99526C14.1294 5.90585 14.2143 5.84015 14.314 5.81196C14.4136 5.78377 14.5203 5.79527 14.6117 5.84405ZM4.32517 5.97182C4.27272 5.84405 4.20911 5.74529 4.06962 5.70456C4.1628 4.58362 4.45852 4.07253 5.51027 3.56144C5.60345 3.59604 5.59731 3.60775 5.59731 3.61947C5.59731 3.77068 5.68435 3.846 5.79483 3.92746C5.60903 3.96819 5.44053 4.04966 5.44053 4.27005C5.44053 4.45027 5.5683 4.54903 5.73067 4.59534C5.67822 4.6941 5.6665 4.73483 5.67822 4.85088C5.4634 4.94964 5.41709 5.08299 5.46898 5.29223C5.55045 5.5885 5.73625 5.6231 6.03252 5.54777C6.04847 5.64001 6.03256 5.73493 5.98741 5.81693C5.94226 5.89892 5.87055 5.96312 5.78408 5.99895C5.6976 6.03479 5.60151 6.04014 5.51159 6.01411C5.42168 5.98809 5.34329 5.93225 5.28932 5.85577C5.28932 5.82675 5.28374 5.80332 5.2776 5.7743C5.23129 5.6058 5.04549 5.50146 4.85913 5.54219C4.67891 5.5885 4.56286 5.76872 4.60917 5.94281C4.62647 6.00084 4.65548 6.04715 4.69621 6.08788C4.71351 6.25638 4.63818 6.40759 4.48698 6.48849C4.33019 6.56995 4.208 6.5348 4.05735 6.48291C4.30731 6.36686 4.43509 6.25638 4.32461 5.97182H4.32517ZM4.34247 4.75771C4.23813 5.00767 4.18568 5.29781 4.15053 5.65211C4.27272 5.70456 4.35362 5.82619 4.40049 5.94839C4.47582 6.13419 4.47582 6.32613 4.26714 6.47119C4.33007 6.47804 4.39349 6.46371 4.44736 6.43046C4.56342 6.3663 4.62758 6.25024 4.62144 6.12861C4.58133 6.08121 4.55167 6.02588 4.5344 5.96624C4.47638 5.74529 4.61587 5.5249 4.83626 5.47245C4.94316 5.44523 5.05643 5.46018 5.15262 5.51419C5.2488 5.5682 5.32052 5.65714 5.35293 5.76259C5.35851 5.78602 5.36465 5.8089 5.36465 5.83233C5.55658 6.05886 5.9399 5.94281 5.9572 5.64653C5.60289 5.71628 5.45169 5.54219 5.39366 5.30953C5.34121 5.11759 5.36465 4.92063 5.59118 4.80402C5.58914 4.74892 5.59708 4.69392 5.61461 4.64165C5.55278 4.61606 5.4982 4.57564 5.45568 4.52398C5.41316 4.47231 5.384 4.41097 5.37078 4.34537C5.16769 4.38611 4.94115 4.44413 4.75535 4.51946C4.57513 4.58362 4.44178 4.67624 4.34302 4.75771H4.34247ZM5.51585 3.64291C4.92944 3.93918 4.58629 4.24104 4.3832 4.6595C4.49027 4.58171 4.60763 4.51918 4.73192 4.4737C4.92386 4.39838 5.15597 4.34035 5.35907 4.29962V4.27005C5.35907 4.10155 5.46954 3.95034 5.62019 3.89231C5.55791 3.82333 5.5211 3.73513 5.51585 3.64235V3.64291ZM13.6185 6.49463C13.5473 6.45679 13.4892 6.39826 13.4518 6.32675C13.4145 6.25525 13.3996 6.17411 13.4093 6.09401C13.45 6.05328 13.479 6.00697 13.4963 5.94895C13.5067 5.90663 13.5087 5.86267 13.502 5.8196C13.4954 5.77654 13.4803 5.7352 13.4576 5.69798C13.435 5.66075 13.4052 5.62837 13.37 5.60269C13.3348 5.57701 13.2949 5.55854 13.2525 5.54833C13.2027 5.53523 13.1507 5.5335 13.1002 5.54328C13.0497 5.55305 13.002 5.57407 12.9607 5.60479C12.9195 5.6355 12.8856 5.67511 12.8618 5.72069C12.8379 5.76626 12.8246 5.81663 12.8229 5.86804C12.5617 6.19891 12.0328 6.02483 12.0797 5.56005C12.3759 5.62979 12.5617 5.60078 12.6432 5.3045C12.7012 5.09527 12.6488 4.96192 12.4401 4.86316C12.4529 4.77447 12.4344 4.6841 12.3877 4.60761C12.55 4.5613 12.6778 4.46255 12.6778 4.28233C12.6778 4.06137 12.5093 3.98047 12.3235 3.94532C12.434 3.85828 12.5266 3.78853 12.5266 3.63733C12.5266 3.62561 12.5266 3.60831 12.521 3.5966L12.5963 3.57316C13.642 4.07867 13.9611 4.60706 14.0543 5.71628C13.9092 5.75701 13.845 5.85577 13.7987 5.98354C13.6883 6.2681 13.816 6.37857 14.066 6.50021C13.8975 6.54094 13.7759 6.57553 13.6185 6.49463ZM12.7414 4.34537C12.7124 4.47873 12.6192 4.5892 12.4914 4.64165C12.5114 4.69332 12.5194 4.74882 12.5149 4.80402C12.747 4.92007 12.7648 5.11759 12.7124 5.30953C12.6482 5.54164 12.5032 5.71628 12.1489 5.64653C12.1662 5.94281 12.5495 6.05886 12.7414 5.83233C12.7414 5.8089 12.747 5.78602 12.7531 5.76259C12.8112 5.54777 13.0433 5.41386 13.2642 5.47245C13.4907 5.53048 13.6241 5.75143 13.5661 5.96624C13.5488 6.02427 13.5198 6.0823 13.479 6.12303C13.477 6.16957 13.4849 6.21601 13.5021 6.25928C13.5194 6.30256 13.5456 6.34168 13.5791 6.37406C13.6126 6.40644 13.6525 6.43135 13.6964 6.44713C13.7402 6.46291 13.7869 6.46921 13.8333 6.46561C13.6241 6.32612 13.6241 6.13475 13.7 5.94281C13.7463 5.82061 13.8222 5.69898 13.9499 5.64653C13.9209 5.29223 13.8629 5.00209 13.758 4.75213C13.6349 4.6502 13.4955 4.56966 13.3457 4.51388C13.1716 4.44971 12.9389 4.39169 12.7414 4.34537ZM12.5902 3.63119C12.5846 3.72995 12.5439 3.82313 12.4797 3.88673C12.5578 3.91446 12.6254 3.96564 12.6732 4.03326C12.721 4.10088 12.7468 4.18164 12.747 4.26447V4.29348C12.9562 4.33979 13.1766 4.39224 13.3741 4.46757C13.5136 4.52002 13.6297 4.58362 13.7229 4.65337C13.5198 4.24104 13.1766 3.93918 12.5902 3.63119ZM11.3705 7.12791L10.778 6.7273L11.4983 6.65197L12.0908 7.05259L11.3705 7.12791ZM10.2551 6.8958C10.2242 6.89632 10.1935 6.89071 10.1648 6.8793C10.136 6.8679 10.1098 6.85092 10.0877 6.82934C10.0656 6.80777 10.0479 6.78202 10.0357 6.75359C10.0236 6.72516 10.0172 6.69461 10.0169 6.66369C10.0169 6.53592 10.1274 6.43158 10.2551 6.43158C10.3885 6.43158 10.499 6.53592 10.499 6.66369C10.499 6.79146 10.3885 6.8958 10.2551 6.8958ZM10.2551 6.84335C10.3595 6.84335 10.4409 6.76189 10.4409 6.66313C10.4409 6.56437 10.3595 6.48291 10.2551 6.48291C10.1508 6.48291 10.0693 6.56437 10.0693 6.66313C10.0693 6.76189 10.1564 6.84335 10.2551 6.84335ZM5.52701 7.44762C5.63135 7.44762 5.71281 7.36616 5.71281 7.2674C5.71281 7.16864 5.63135 7.08718 5.52701 7.08718C5.42267 7.08718 5.34121 7.16864 5.34121 7.2674C5.34121 7.36616 5.42267 7.44762 5.52701 7.44762ZM5.52701 7.50007C5.39366 7.50007 5.28318 7.39573 5.28318 7.26796C5.28318 7.14019 5.39366 7.03585 5.52701 7.03585C5.66036 7.03585 5.77084 7.14019 5.77084 7.26796C5.76526 7.39573 5.66036 7.50007 5.52701 7.50007ZM7.85035 6.84391C7.95469 6.84391 8.03615 6.76245 8.03615 6.66369C8.0347 6.61539 8.01448 6.56955 7.97979 6.5359C7.94511 6.50225 7.89867 6.48345 7.85035 6.48347C7.74601 6.48347 7.66455 6.56493 7.66455 6.66369C7.65897 6.76245 7.74601 6.84391 7.85035 6.84391ZM7.85035 6.89636C7.717 6.89636 7.60652 6.79202 7.60652 6.66425C7.60652 6.53648 7.717 6.43214 7.85035 6.43214C7.9837 6.43214 8.09418 6.53648 8.09418 6.66425C8.0886 6.79202 7.9837 6.89636 7.85035 6.89636ZM12.5785 7.44818C12.6828 7.44818 12.7643 7.36672 12.7643 7.26796C12.7643 7.1692 12.6828 7.08774 12.5785 7.08774C12.4741 7.08774 12.3927 7.1692 12.3927 7.26796C12.3927 7.36672 12.4741 7.44818 12.5785 7.44818ZM12.5785 7.50063C12.4451 7.50063 12.3347 7.39629 12.3347 7.26852C12.3347 7.14074 12.4451 7.03641 12.5785 7.03641C12.7118 7.03641 12.8223 7.14074 12.8223 7.26852C12.8223 7.39629 12.7118 7.50063 12.5785 7.50063ZM6.73555 7.12903L6.01522 7.0537L6.60778 6.65309L7.3281 6.72841L6.73555 7.12903ZM9.65702 6.60064L9.05331 6.38415L8.45517 6.59897L9.05331 6.81434L9.65702 6.60064ZM9.80822 6.60064L9.05331 6.87237L8.29839 6.59952L9.05331 6.32612L9.80822 6.60064Z" fill="#004996"/>
</svg>
