<svg width="24" height="24" viewBox="0 0 24 24" fill="none" xmlns="http://www.w3.org/2000/svg">
<path fill-rule="evenodd" clip-rule="evenodd" d="M0.58667 11.9464C0.58667 5.67884 5.67908 0.586426 11.9467 0.586426C18.2143 0.586426 23.3067 5.67884 23.3067 11.9464C23.3067 18.214 18.2143 23.3064 11.9467 23.3064C5.67908 23.3064 0.58667 18.214 0.58667 11.9464Z" fill="#F9D438"/>
<path fill-rule="evenodd" clip-rule="evenodd" d="M1.13501 11.9464C1.13501 5.99215 5.99239 1.13477 11.9466 1.13477C17.9008 1.13477 22.7582 5.99215 22.7582 11.9464C22.7582 17.9006 17.9008 22.7579 11.9466 22.7579C5.99239 22.7579 1.13501 17.9006 1.13501 11.9464Z" fill="#000105"/>
<path fill-rule="evenodd" clip-rule="evenodd" d="M1.76172 11.9467C1.76172 6.30583 6.34489 1.72266 11.9857 1.72266C17.6265 1.72266 22.2097 6.30583 22.2097 11.9467C22.2097 17.5875 17.6265 22.1707 11.9857 22.1707C6.30571 22.1315 1.76172 17.5875 1.76172 11.9467Z" fill="#F9D438"/>
<path fill-rule="evenodd" clip-rule="evenodd" d="M13.6309 20.6426C12.8867 20.6426 12.3382 20.055 12.3382 19.4282C12.3382 19.3499 12.3382 19.2715 12.3382 19.2324H13.0434C13.2392 19.2324 13.2 19.5066 13.2 19.5066C13.2 19.7024 13.4351 19.82 13.5918 19.82C13.7876 19.82 13.9835 19.6241 13.9835 19.4282V18.9973C13.866 19.0757 13.5918 19.0757 13.5918 19.0757C12.965 19.0757 12.2991 18.4881 12.2991 17.8222V17.5088C12.2991 16.8037 12.8867 16.2944 13.5918 16.2944H13.6309C14.336 16.2944 14.8453 16.8429 14.8453 17.548V19.4282C14.8453 20.0942 14.336 20.6426 13.6309 20.6426Z" fill="#000105"/>
<path fill-rule="evenodd" clip-rule="evenodd" d="M13.5919 17.1562C13.827 17.1562 13.9836 17.3129 13.9836 17.548V17.783C13.9836 17.9789 13.827 18.1747 13.5919 18.1747C13.3961 18.1747 13.2002 18.018 13.2002 17.783V17.548C13.2002 17.3129 13.3961 17.1562 13.5919 17.1562Z" fill="#F9D438"/>
<path fill-rule="evenodd" clip-rule="evenodd" d="M4.2688 7.59814V16.0986H6.93252C9.08701 16.0986 10.1838 13.474 8.69528 11.8679C9.9488 10.4577 9.40039 7.98987 7.08921 7.63732H4.2688V7.59814ZM5.8357 11.0845V9.16504H7.16756C8.02935 9.16504 8.18604 10.8103 7.20673 11.0845H5.8357ZM5.8357 14.61V12.6122H7.01087C7.99018 12.6122 8.30356 14.375 7.05004 14.61H5.8357Z" fill="#000105"/>
<path fill-rule="evenodd" clip-rule="evenodd" d="M15.3154 7.59814V16.0986H17.9792C20.1336 16.0986 21.2305 13.474 19.7419 11.8679C20.9954 10.4577 20.447 7.98987 18.1358 7.63732H15.3154V7.59814ZM16.8823 11.0845V9.16504H18.175C19.0368 9.16504 19.1935 10.8103 18.2142 11.0845H16.8823ZM16.8823 14.61V12.6122H18.0183C18.9976 12.6122 19.311 14.375 18.0575 14.61H16.8823Z" fill="#000105"/>
<path fill-rule="evenodd" clip-rule="evenodd" d="M10.3014 16.2554C11.0065 16.2554 11.5941 16.8038 11.5941 17.5089V19.3892C11.5941 20.0943 11.0456 20.6427 10.3405 20.6427H10.3014C9.59626 20.6427 9.04785 20.0943 9.04785 19.3892V17.5089C9.04785 16.8038 9.59626 16.2554 10.3014 16.2554Z" fill="#000105"/>
<path fill-rule="evenodd" clip-rule="evenodd" d="M10.3014 17.1562C10.5364 17.1562 10.6931 17.3129 10.6931 17.548V19.4282C10.6931 19.6241 10.5364 19.82 10.3014 19.82C10.1055 19.82 9.90967 19.6633 9.90967 19.4282V17.548C9.90967 17.3129 10.0664 17.1562 10.3014 17.1562Z" fill="#F9D438"/>
<path fill-rule="evenodd" clip-rule="evenodd" d="M8.57788 3.36768L11.3591 11.9464H12.5735L15.3155 3.36768H13.6311L11.9467 9.08685L10.3015 3.36768H8.57788Z" fill="#000105"/>
</svg>
