<svg width="24" height="24" viewBox="0 0 24 24" fill="none" xmlns="http://www.w3.org/2000/svg">
<path d="M11.9467 0.586426C5.67908 0.586426 0.58667 5.67884 0.58667 11.9464C0.58667 18.214 5.67908 23.3064 11.9467 23.3064C18.2143 23.3064 23.3067 18.214 23.3067 11.9464C23.3067 5.67884 18.2143 0.586426 11.9467 0.586426Z" fill="#0066B2"/>
<path d="M11.9466 1.17383C5.99239 1.17383 1.13501 5.99203 1.13501 11.9462C1.13501 17.9004 5.95322 22.7187 11.9466 22.7187C17.94 22.7187 22.719 17.9004 22.719 11.9462C22.719 5.99203 17.9008 1.17383 11.9466 1.17383Z" fill="white"/>
<path d="M11.9465 1.68311C6.26652 1.68311 1.68335 6.30545 1.68335 11.9463C1.68335 17.5871 6.30569 22.2094 11.9465 22.2094C17.5873 22.2094 22.2097 17.5871 22.2097 11.9463C22.2097 6.30545 17.6265 1.68311 11.9465 1.68311ZM11.9465 18.3706C8.421 18.3706 5.52225 15.511 5.52225 11.9463C5.52225 8.38159 8.38183 5.522 11.9465 5.522C15.5112 5.522 18.3708 8.42076 18.3708 11.9463C18.3708 15.4718 15.5112 18.3706 11.9465 18.3706Z" fill="#DC052D"/>
<path d="M6.30593 13.7091C6.58014 14.5317 7.01103 15.3152 7.59862 15.9811V13.3174L6.11007 11.1237C5.99255 11.9463 6.03173 12.8473 6.30593 13.7091ZM9.36138 15.7852V12.7298L7.63779 10.2227V7.91158C7.32441 8.26413 7.05021 8.61668 6.81517 9.04758L7.63779 10.2227V13.2782L9.36138 15.7852V17.2346C9.79228 17.4305 10.2232 17.5872 10.6932 17.7047L9.36138 15.7852ZM11.085 12.2205L12.8086 14.7276V17.783L11.085 15.276V12.2205L9.36138 9.71351V6.65806L11.085 9.16509V12.2205ZM12.8086 11.6721L11.085 9.16509V6.10964L12.8086 8.61668V11.6721L14.5321 14.1792V17.2346L12.8086 14.7276V11.6721ZM10.184 6.30551C9.32221 6.57971 8.53876 7.01061 7.912 7.63737L9.32221 9.71351V12.769L11.0458 15.276V17.783C12.8086 18.0572 14.6497 17.5088 15.9423 16.2553L14.5321 14.1792V11.1237L12.8086 8.61668V6.10964C11.9468 5.95296 11.0458 6.0313 10.184 6.30551ZM16.2949 13.6699V10.6145L14.5713 8.10744V6.65806C14.1404 6.4622 13.7095 6.30551 13.2394 6.18799L14.5321 8.10744V11.1629L16.2949 13.6699V15.9811C16.6083 15.6285 16.8825 15.276 17.1175 14.8451L16.2949 13.6699ZM17.5876 10.1836C17.3134 9.36095 16.8825 8.57751 16.2949 7.91158V10.5753L17.7835 12.769C17.9401 11.9463 17.8618 11.0454 17.5876 10.1836Z" fill="#0066B2"/>
<path d="M5.09158 14.0615L5.36579 14.6883L4.89572 15.5892C4.81737 15.7068 4.7782 15.8243 4.7782 15.8243C4.7782 15.8243 4.89572 15.8243 5.05241 15.8635L6.07089 15.9418L6.42344 16.5294L4.22979 17.8221L3.87723 17.2737L4.7782 16.7252C4.97406 16.6077 5.16992 16.5294 5.16992 16.5294C5.16992 16.5294 5.05241 16.5294 4.81737 16.4902L3.87723 16.3335L4.26896 15.4717C4.3473 15.2759 4.42565 15.1584 4.42565 15.1584C4.42565 15.1584 4.26896 15.2367 4.03392 15.3542L3.09379 15.8243L2.81958 15.2367L5.09158 14.0615Z" fill="white"/>
<path d="M6.73668 16.8428L7.24592 17.2737L6.22744 18.488C6.07075 18.6839 6.07075 18.8797 6.30579 19.0756C6.54082 19.2715 6.77586 19.2323 6.93255 19.0364L7.87268 17.7829L8.4211 18.1746L7.48096 19.4673C7.05006 20.0549 6.46248 19.9374 5.99241 19.5457C5.48317 19.1539 5.24813 18.6447 5.7182 18.0571L6.73668 16.8428ZM7.75517 17.6262L7.12841 18.0571L7.40261 17.352L7.75517 17.6262Z" fill="white"/>
<path d="M8.81285 18.3706L9.47879 18.6056L9.83134 19.8592C9.90968 20.1334 9.94886 20.2901 9.94886 20.2901C9.94886 20.2901 9.98803 20.0942 10.0664 19.8592L10.3406 18.8407L10.9673 18.9974L10.3014 21.4261L9.63548 21.2694L9.20458 19.9375C9.12623 19.6633 9.08706 19.5066 9.08706 19.5066C9.08706 19.5066 9.04789 19.7025 8.96954 19.9375L8.61699 20.956L7.99023 20.7209L8.81285 18.3706Z" fill="white"/>
<path d="M13.7485 20.5643C13.7485 21.1519 13.396 21.5828 12.6517 21.622C11.9858 21.6612 11.359 21.3478 11.3198 20.3685C11.2807 19.3892 11.8291 18.9974 12.4558 18.9583C13.161 18.9191 13.5527 19.3108 13.631 19.8201L12.9651 19.8592C12.8867 19.6242 12.7692 19.5067 12.495 19.5067C12.2208 19.5067 12.025 19.7809 12.025 20.2901C12.0641 20.8385 12.26 21.0344 12.5734 20.9952C12.8867 20.9561 13.0043 20.8385 13.0434 20.5643H13.7485Z" fill="white"/>
<path d="M13.9053 18.8017L14.532 18.5667L14.8846 19.4285L15.668 19.0759L15.2371 18.2533L15.8247 17.9399L16.9607 20.1728L16.3731 20.4861L15.9422 19.5852L15.1196 19.9769L15.5113 20.917L14.8846 21.1521L13.9053 18.8017Z" fill="white"/>
<path d="M16.2556 17.6263L17.47 16.4512L17.8225 16.8429L17.0782 17.5872L17.3916 17.9006L18.0967 17.1954L18.4884 17.548L17.7442 18.2923L18.0575 18.6448L18.8802 17.8222L19.2719 18.2139L17.94 19.5066L16.2556 17.6263Z" fill="white"/>
<path d="M17.7441 16.0985L18.0967 15.4717L19.4286 15.315C19.7028 15.2759 19.8594 15.2759 19.8594 15.2759C19.8594 15.2759 19.6636 15.1975 19.4677 15.1192L18.5276 14.6883L18.8018 14.0615L21.113 15.1192L20.8388 15.7459L19.4677 15.9418C19.1935 15.981 19.0368 15.981 19.0368 15.981C19.0368 15.981 19.2327 16.0593 19.4286 16.1768L20.3687 16.6861L20.0553 17.2737L17.7441 16.0985Z" fill="white"/>
<path d="M3.2896 7.71582L3.79884 7.95085L3.40712 9.04768L3.87719 9.20437L4.22974 8.14672L4.73898 8.34258L4.38643 9.36106L5.24822 9.67444L5.05236 10.3012L2.66284 9.51775L3.2896 7.71582Z" fill="white"/>
<path d="M6.38417 6.07036C6.81507 6.46208 6.89341 7.0105 6.46252 7.55891C6.07079 8.06815 5.44403 8.30319 4.66059 7.7156C3.87714 7.12801 3.99466 6.46208 4.38638 5.91367C4.81728 5.36526 5.40486 5.32608 5.83576 5.60029L5.40486 6.1487C5.209 6.03119 5.01314 6.03119 4.81728 6.30539C4.62141 6.54043 4.66058 6.85381 5.09148 7.16719C5.48321 7.48057 5.83576 7.48057 5.99245 7.24553C6.18831 7.0105 6.14914 6.81464 5.95328 6.61877L6.38417 6.07036Z" fill="white"/>
<path d="M8.06864 3.21117C8.49954 3.01531 8.96961 2.97613 9.1263 3.40703C9.28299 3.79876 9.16547 3.95544 8.96961 4.11213C9.16547 4.07296 9.43968 4.07296 9.63554 4.50386C9.8314 5.0131 9.51802 5.28731 9.08713 5.48317L8.14699 5.91407L7.01099 3.64207L8.06864 3.21117ZM8.42119 4.11213C8.57788 4.03379 8.65623 3.95544 8.57788 3.79876C8.49954 3.64207 8.38202 3.64207 8.22533 3.72041L7.83361 3.8771L8.02947 4.308L8.42119 4.11213ZM8.85209 5.05227C9.04795 4.97393 9.08712 4.89558 9.00878 4.69972C8.93043 4.50386 8.81292 4.50386 8.61705 4.62138L8.30368 4.77807L8.53871 5.24813L8.85209 5.05227Z" fill="white"/>
<path d="M12.6518 4.85627H11.9467L11.7508 4.3862L10.889 4.46454L10.7715 4.93461L10.0664 5.05213L10.7715 2.3884L11.555 2.31006L12.6518 4.85627ZM11.5158 3.91613L11.2808 3.40689C11.2024 3.2502 11.1632 3.09351 11.1632 3.09351C11.1632 3.09351 11.1241 3.2502 11.0849 3.44606L10.9674 3.9553L11.5158 3.91613Z" fill="white"/>
<path d="M13.2785 4.11199L12.6909 2.31006L13.4352 2.46675L13.6702 3.21102C13.7094 3.36771 13.7486 3.5244 13.7486 3.5244C13.7486 3.5244 13.8661 3.40689 13.9444 3.28937L14.4537 2.70178L15.198 2.89764L13.9053 4.26868L13.7094 5.0913L13.0435 4.93461L13.2785 4.11199Z" fill="white"/>
<path d="M15.7463 3.09326L17.3524 3.95505L17.0782 4.42512L16.0989 3.91588L15.903 4.30761L16.804 4.77768L16.5298 5.24774L15.668 4.77768L15.433 5.1694L16.4123 5.71781L16.1381 6.18788L14.6104 5.36526L15.7463 3.09326Z" fill="white"/>
<path d="M18.2533 4.66016L19.0368 5.48278C19.4285 5.91367 19.5069 6.3054 19.0368 6.73629C18.7234 7.0105 18.5276 7.08885 18.2533 6.97133L17.8616 7.98981L17.3916 7.40222L17.7441 6.5796L17.5091 6.34457L16.9215 6.93216L16.4514 6.46209L18.2533 4.66016ZM17.9008 5.95285L18.175 6.22705C18.3317 6.38374 18.4492 6.38374 18.6059 6.22705C18.7626 6.07036 18.7626 5.95285 18.6059 5.79616L18.3317 5.48278L17.9008 5.95285Z" fill="white"/>
<path d="M18.8801 10.3013L18.6451 9.63534L19.3893 8.53851C19.546 8.30348 19.6244 8.18596 19.6244 8.18596C19.6244 8.18596 19.4677 8.26431 19.2327 8.38183L18.2925 8.81272L18.0183 8.22514L20.3295 7.16748L20.6429 7.79424L19.8986 8.96941C19.7419 9.20445 19.6636 9.32196 19.6636 9.32196C19.6636 9.32196 19.8594 9.24362 20.0553 9.16527L21.0738 8.77355L21.2696 9.40031L18.8801 10.3013Z" fill="white"/>
</svg>
